<svg xmlns="http://www.w3.org/2000/svg">
	<symbol width="32" height="40" viewBox="0 0 32 40" fill="none" id="health">
		<path d="M13 27H19V22H24V16H19V11H13V16H8V22H13V27ZM16 40C11.3667 38.8333 7.54167 36.175 4.525 32.025C1.50833 27.875 0 23.2667 0 18.2V6L16 0L32 6V18.2C32 23.2667 30.4917 27.875 27.475 32.025C24.4583 36.175 20.6333 38.8333 16 40ZM16 35.8C19.4667 34.7 22.3333 32.5 24.6 29.2C26.8667 25.9 28 22.2333 28 18.2V8.75L16 4.25L4 8.75V18.2C4 22.2333 5.13333 25.9 7.4 29.2C9.66667 32.5 12.5333 34.7 16 35.8Z" fill="#3C94FC"/>
	</symbol>
	<symbol width="28" height="40" viewBox="0 0 28 40" fill="none" id="elderly">
		<path d="M4.69749 40L1.72075 37.7674L6.55796 31.3023V21.3953C6.55796 20.4341 6.63548 19.3876 6.79052 18.2558C6.94555 17.124 7.17811 16.0775 7.48819 15.1163L4.69749 16.6512V23.2558H0.976562V14.5116L9.16261 9.86047C9.9378 9.42636 10.6122 9.09302 11.1859 8.86047C11.7595 8.62791 12.2944 8.51163 12.7905 8.51163C13.5657 8.51163 14.2711 8.84496 14.9068 9.51163C15.5425 10.1783 16.2789 11.2248 17.1161 12.6512C18.1083 14.3256 19.0076 15.5814 19.8138 16.4186C20.62 17.2558 21.4882 17.8915 22.4184 18.3256C22.7595 18.0775 23.0541 17.907 23.3021 17.814C23.5502 17.7209 23.8448 17.6744 24.1859 17.6744C24.9611 17.6744 25.6277 17.9535 26.1859 18.5116C26.744 19.0698 27.0231 19.7209 27.0231 20.4651V40H25.1626V20.4651C25.1626 20.2171 25.0696 20 24.8835 19.814C24.6975 19.6279 24.4804 19.5349 24.2324 19.5349C23.9843 19.5349 23.7673 19.6279 23.5812 19.814C23.3952 20 23.3021 20.2171 23.3021 20.4651V22.7907H21.4417V21.907C19.7673 21.1938 18.4649 20.3953 17.5347 19.5116C16.6045 18.6279 15.7828 17.4419 15.0696 15.9535C14.7285 16.8217 14.4572 17.8837 14.2556 19.1395C14.0541 20.3953 13.9843 21.5814 14.0463 22.6977L17.7207 27.907V40H13.9998V30.6977L10.6975 25.9535L10.2789 32.5581L4.69749 40ZM14.93 7.44186C13.9068 7.44186 13.0308 7.07752 12.3021 6.34884C11.5735 5.62016 11.2091 4.74419 11.2091 3.72093C11.2091 2.69767 11.5735 1.82171 12.3021 1.09302C13.0308 0.364341 13.9068 0 14.93 0C15.9533 0 16.8293 0.364341 17.558 1.09302C18.2866 1.82171 18.651 2.69767 18.651 3.72093C18.651 4.74419 18.2866 5.62016 17.558 6.34884C16.8293 7.07752 15.9533 7.44186 14.93 7.44186Z" fill="#3C94FC"/>
	</symbol>
	<symbol width="40" height="40" viewBox="0 0 40 40" fill="none" id="currency_exchange">
			<mask id="mask0_1060_1636" style="mask-type:alpha" maskUnits="userSpaceOnUse" x="0" y="0" width="40" height="40">
			<rect width="40" height="40" fill="#D9D9D9"/>
			</mask>
			<g mask="url(#mask0_1060_1636)">
			<path d="M20.0013 38.3346C16.8902 38.3346 14.0291 37.6263 11.418 36.2096C8.80686 34.793 6.66797 32.9041 5.0013 30.543V35.0013H1.66797V25.0013H11.668V28.3346H7.54297C8.8763 30.3346 10.6332 31.9457 12.8138 33.168C14.9944 34.3902 17.3902 35.0013 20.0013 35.0013C22.0846 35.0013 24.036 34.6055 25.8555 33.8138C27.6749 33.0221 29.2582 31.9527 30.6055 30.6055C31.9527 29.2582 33.0221 27.6749 33.8138 25.8555C34.6055 24.036 35.0013 22.0846 35.0013 20.0013H38.3346C38.3346 22.5291 37.8555 24.9041 36.8971 27.1263C35.9388 29.3485 34.6263 31.293 32.9596 32.9596C31.293 34.6263 29.3485 35.9388 27.1263 36.8971C24.9041 37.8555 22.5291 38.3346 20.0013 38.3346ZM18.5013 31.668V29.5013C17.1957 29.1957 16.1332 28.6332 15.3138 27.8138C14.4944 26.9944 13.8902 25.918 13.5013 24.5846L16.2513 23.5013C16.5846 24.6402 17.1055 25.4944 17.8138 26.0638C18.5221 26.6332 19.3346 26.918 20.2513 26.918C21.168 26.918 21.9527 26.7027 22.6055 26.2721C23.2582 25.8416 23.5846 25.168 23.5846 24.2513C23.5846 23.4457 23.2444 22.793 22.5638 22.293C21.8832 21.793 20.668 21.2235 18.918 20.5846C17.2791 20.0013 16.0777 19.3069 15.3138 18.5013C14.5499 17.6957 14.168 16.6402 14.168 15.3346C14.168 14.1957 14.5638 13.161 15.3555 12.2305C16.1471 11.2999 17.2235 10.6957 18.5846 10.418V8.33464H21.5013V10.418C22.5013 10.5013 23.411 10.9041 24.2305 11.6263C25.0499 12.3485 25.6124 13.1957 25.918 14.168L23.2513 15.2513C23.0291 14.6124 22.668 14.0777 22.168 13.6471C21.668 13.2166 20.9735 13.0013 20.0846 13.0013C19.1124 13.0013 18.3694 13.2096 17.8555 13.6263C17.3416 14.043 17.0846 14.6124 17.0846 15.3346C17.0846 16.0569 17.4041 16.6263 18.043 17.043C18.6819 17.4596 19.8346 17.9457 21.5013 18.5013C23.5013 19.2235 24.8346 20.0707 25.5013 21.043C26.168 22.0152 26.5013 23.0846 26.5013 24.2513C26.5013 25.0569 26.3624 25.7652 26.0846 26.3763C25.8069 26.9874 25.4388 27.5082 24.9805 27.9388C24.5221 28.3694 23.9874 28.7166 23.3763 28.9805C22.7652 29.2444 22.1124 29.4457 21.418 29.5846V31.668H18.5013ZM1.66797 20.0013C1.66797 17.4735 2.14714 15.0985 3.10547 12.8763C4.0638 10.6541 5.3763 8.70964 7.04297 7.04297C8.70964 5.3763 10.6541 4.0638 12.8763 3.10547C15.0985 2.14714 17.4735 1.66797 20.0013 1.66797C23.1124 1.66797 25.9735 2.3763 28.5846 3.79297C31.1957 5.20964 33.3346 7.09852 35.0013 9.45964V5.0013H38.3346V15.0013H28.3346V11.668H32.4596C31.1263 9.66797 29.3694 8.05686 27.1888 6.83464C25.0082 5.61241 22.6124 5.0013 20.0013 5.0013C17.918 5.0013 15.9666 5.39714 14.1471 6.1888C12.3277 6.98047 10.7444 8.04991 9.39714 9.39714C8.04991 10.7444 6.98047 12.3277 6.1888 14.1471C5.39714 15.9666 5.0013 17.918 5.0013 20.0013H1.66797Z" fill="#3C94FC"/>
			</g>
	</symbol>
</svg>