<svg width="50" height="52" viewBox="0 0 50 52" fill="none" xmlns="http://www.w3.org/2000/svg">
<path d="M24.0938 51.9C19.2938 51.9 15.0938 50.9333 11.4938 49C7.96042 47.0667 5.19375 44.4 3.19375 41C1.26042 37.6 0.29375 33.7 0.29375 29.3C0.29375 23.8333 1.39375 18.9 3.59375 14.5C5.79375 10.1 8.96042 6.6 13.0938 4C17.2271 1.4 22.1938 0.0999997 27.9938 0.0999997C32.5938 0.0999997 36.4938 0.999999 39.6938 2.8C42.9604 4.6 45.4271 7.16666 47.0938 10.5C48.8271 13.8333 49.6938 17.8 49.6938 22.4C49.6938 23.7333 49.6271 25.1 49.4938 26.5C49.3604 27.8333 49.0938 29.1667 48.6938 30.5H8.69375V21H40.2938L35.9938 23.8C36.2604 22.9333 36.4271 22.1667 36.4938 21.5C36.5604 20.7667 36.5938 20.0667 36.5938 19.4C36.5938 17.4 36.2271 15.7333 35.4938 14.4C34.7604 13 33.7271 11.9333 32.3938 11.2C31.0604 10.4667 29.4604 10.1 27.5938 10.1C24.8604 10.1 22.5604 10.7 20.6938 11.9C18.8938 13.1 17.4271 14.7 16.2938 16.7C15.2271 18.6333 14.4604 20.7667 13.9938 23.1C13.5271 25.4333 13.2938 27.7333 13.2938 30C13.2938 32.4667 13.7604 34.6 14.6938 36.4C15.6938 38.1333 17.0604 39.5 18.7938 40.5C20.5271 41.4333 22.5604 41.9 24.8938 41.9C27.6271 41.9 29.8604 41.3 31.5938 40.1C33.3271 38.8333 34.6938 37.2667 35.6938 35.4L46.8938 40.4C45.6271 42.8 43.8604 44.8667 41.5938 46.6C39.3938 48.2667 36.7938 49.5667 33.7938 50.5C30.8604 51.4333 27.6271 51.9 24.0938 51.9Z" fill="#3C94FC"/>
</svg>
