<svg xmlns="http://www.w3.org/2000/svg">
	<symbol width="316" height="152" viewBox="0 0 316 152" fill="none" id="chart_1">
		<line x1="50.75" y1="150" x2="50.75" stroke="black" stroke-opacity="0.7" stroke-width="0.5"/>
		<line x1="51" y1="139.75" x2="281" y2="139.75" stroke="black" stroke-opacity="0.7" stroke-width="0.5"/>
		<path d="M51 139C150.662 139.127 203.108 139.299 277 140" stroke="black" stroke-width="2"/>
		<line x1="277.5" y1="136" x2="277.5" y2="143" stroke="black"/>
		<path d="M285.292 143V138.44C285.292 138.232 285.292 138.02 285.292 137.804C285.3 137.58 285.304 137.352 285.304 137.12C285.04 137.36 284.748 137.572 284.428 137.756C284.108 137.932 283.772 138.052 283.42 138.116L283.228 136.412C283.436 136.396 283.656 136.344 283.888 136.256C284.128 136.168 284.364 136.06 284.596 135.932C284.828 135.804 285.036 135.668 285.22 135.524C285.404 135.372 285.544 135.224 285.64 135.08H287.284V143H285.292ZM292.032 143.12C290.952 143.12 290.132 142.776 289.572 142.088C289.02 141.4 288.744 140.384 288.744 139.04C288.744 137.696 289.02 136.68 289.572 135.992C290.132 135.304 290.952 134.96 292.032 134.96C293.112 134.96 293.928 135.304 294.48 135.992C295.04 136.68 295.32 137.696 295.32 139.04C295.32 140.384 295.04 141.4 294.48 142.088C293.928 142.776 293.112 143.12 292.032 143.12ZM292.032 141.512C292.328 141.512 292.568 141.432 292.752 141.272C292.936 141.104 293.068 140.84 293.148 140.48C293.236 140.112 293.28 139.632 293.28 139.04C293.28 138.448 293.236 137.972 293.148 137.612C293.068 137.244 292.936 136.98 292.752 136.82C292.568 136.652 292.328 136.568 292.032 136.568C291.744 136.568 291.504 136.652 291.312 136.82C291.128 136.98 290.992 137.244 290.904 137.612C290.824 137.972 290.784 138.448 290.784 139.04C290.784 139.632 290.824 140.112 290.904 140.48C290.992 140.84 291.128 141.104 291.312 141.272C291.504 141.432 291.744 141.512 292.032 141.512ZM299.755 143.12C298.675 143.12 297.855 142.776 297.295 142.088C296.743 141.4 296.467 140.384 296.467 139.04C296.467 137.696 296.743 136.68 297.295 135.992C297.855 135.304 298.675 134.96 299.755 134.96C300.835 134.96 301.651 135.304 302.203 135.992C302.763 136.68 303.043 137.696 303.043 139.04C303.043 140.384 302.763 141.4 302.203 142.088C301.651 142.776 300.835 143.12 299.755 143.12ZM299.755 141.512C300.051 141.512 300.291 141.432 300.475 141.272C300.659 141.104 300.791 140.84 300.871 140.48C300.959 140.112 301.003 139.632 301.003 139.04C301.003 138.448 300.959 137.972 300.871 137.612C300.791 137.244 300.659 136.98 300.475 136.82C300.291 136.652 300.051 136.568 299.755 136.568C299.467 136.568 299.227 136.652 299.035 136.82C298.851 136.98 298.715 137.244 298.627 137.612C298.547 137.972 298.507 138.448 298.507 139.04C298.507 139.632 298.547 140.112 298.627 140.48C298.715 140.84 298.851 141.104 299.035 141.272C299.227 141.432 299.467 141.512 299.755 141.512ZM307.347 138.752V137.972H313.095L312.831 138.752H307.347ZM307.347 140.276V139.484H312.615L312.363 140.276H307.347ZM312.003 134.96C312.523 134.96 312.995 135.036 313.419 135.188C313.843 135.332 314.203 135.544 314.499 135.824C314.795 136.096 315.003 136.432 315.123 136.832L313.611 137.516C313.539 137.132 313.359 136.852 313.071 136.676C312.783 136.492 312.447 136.4 312.063 136.4C311.631 136.4 311.271 136.5 310.983 136.7C310.703 136.9 310.491 137.2 310.347 137.6C310.211 137.992 310.143 138.472 310.143 139.04C310.143 139.888 310.291 140.54 310.587 140.996C310.891 141.452 311.387 141.68 312.075 141.68C312.475 141.68 312.807 141.58 313.071 141.38C313.335 141.172 313.511 140.86 313.599 140.444L315.171 140.912C315.051 141.4 314.843 141.808 314.547 142.136C314.259 142.464 313.895 142.712 313.455 142.88C313.023 143.04 312.543 143.12 312.015 143.12C311.231 143.12 310.559 142.96 309.999 142.64C309.439 142.312 309.007 141.844 308.703 141.236C308.407 140.628 308.259 139.896 308.259 139.04C308.259 138.184 308.411 137.452 308.715 136.844C309.027 136.236 309.463 135.772 310.023 135.452C310.583 135.124 311.243 134.96 312.003 134.96Z" fill="black"/>
		<path d="M3.328 145V137.256C3.328 137.075 3.328 136.883 3.328 136.68C3.33867 136.467 3.34933 136.248 3.36 136.024C2.99733 136.376 2.576 136.685 2.096 136.952C1.616 137.208 1.12533 137.395 0.624 137.512L0.288 136.344C0.48 136.323 0.72 136.253 1.008 136.136C1.30667 136.008 1.616 135.853 1.936 135.672C2.26667 135.48 2.57067 135.277 2.848 135.064C3.12533 134.851 3.33867 134.643 3.488 134.44H4.608V145H3.328ZM11.2104 145.16C10.0157 145.16 9.06104 144.696 8.34637 143.768C7.63171 142.84 7.27438 141.491 7.27438 139.72C7.27438 137.949 7.63171 136.6 8.34637 135.672C9.06104 134.744 10.0157 134.28 11.2104 134.28C12.4157 134.28 13.3704 134.744 14.0744 135.672C14.789 136.6 15.1464 137.949 15.1464 139.72C15.1464 141.491 14.789 142.84 14.0744 143.768C13.3704 144.696 12.4157 145.16 11.2104 145.16ZM11.2104 144.008C11.7757 144.008 12.2504 143.848 12.6344 143.528C13.029 143.197 13.3224 142.712 13.5144 142.072C13.717 141.432 13.8184 140.648 13.8184 139.72C13.8184 138.792 13.717 138.008 13.5144 137.368C13.3224 136.728 13.029 136.248 12.6344 135.928C12.2504 135.597 11.7757 135.432 11.2104 135.432C10.645 135.432 10.165 135.597 9.77038 135.928C9.38638 136.248 9.09304 136.728 8.89038 137.368C8.69838 138.008 8.60238 138.792 8.60238 139.72C8.60238 140.648 8.69838 141.432 8.89038 142.072C9.09304 142.712 9.38638 143.197 9.77038 143.528C10.165 143.848 10.645 144.008 11.2104 144.008ZM21.1635 145.16C19.9688 145.16 19.0142 144.696 18.2995 143.768C17.5848 142.84 17.2275 141.491 17.2275 139.72C17.2275 137.949 17.5848 136.6 18.2995 135.672C19.0142 134.744 19.9688 134.28 21.1635 134.28C22.3688 134.28 23.3235 134.744 24.0275 135.672C24.7422 136.6 25.0995 137.949 25.0995 139.72C25.0995 141.491 24.7422 142.84 24.0275 143.768C23.3235 144.696 22.3688 145.16 21.1635 145.16ZM21.1635 144.008C21.7288 144.008 22.2035 143.848 22.5875 143.528C22.9822 143.197 23.2755 142.712 23.4675 142.072C23.6702 141.432 23.7715 140.648 23.7715 139.72C23.7715 138.792 23.6702 138.008 23.4675 137.368C23.2755 136.728 22.9822 136.248 22.5875 135.928C22.2035 135.597 21.7288 135.432 21.1635 135.432C20.5982 135.432 20.1182 135.597 19.7235 135.928C19.3395 136.248 19.0462 136.728 18.8435 137.368C18.6515 138.008 18.5555 138.792 18.5555 139.72C18.5555 140.648 18.6515 141.432 18.8435 142.072C19.0462 142.712 19.3395 143.197 19.7235 143.528C20.1182 143.848 20.5982 144.008 21.1635 144.008ZM32.5858 139.16V138.12H39.0658L38.7458 139.16H32.5858ZM32.5858 141.576V140.536H38.4258L38.1058 141.576H32.5858ZM38.1858 134.28C38.8364 134.28 39.4071 134.376 39.8978 134.568C40.3884 134.749 40.8044 135.027 41.1458 135.4C41.4978 135.763 41.7698 136.211 41.9618 136.744L40.8098 137.288C40.6284 136.68 40.3244 136.216 39.8978 135.896C39.4818 135.565 38.9484 135.4 38.2978 135.4C37.6578 135.4 37.0978 135.576 36.6178 135.928C36.1378 136.269 35.7591 136.765 35.4818 137.416C35.2151 138.056 35.0818 138.824 35.0818 139.72C35.0818 141.043 35.3538 142.093 35.8978 142.872C36.4418 143.651 37.2418 144.04 38.2978 144.04C38.9698 144.04 39.5351 143.859 39.9938 143.496C40.4631 143.123 40.7938 142.579 40.9858 141.864L42.1538 142.296C41.9618 142.893 41.6791 143.411 41.3058 143.848C40.9431 144.275 40.5004 144.6 39.9778 144.824C39.4658 145.048 38.8898 145.16 38.2498 145.16C37.3004 145.16 36.4951 144.941 35.8338 144.504C35.1724 144.056 34.6658 143.427 34.3138 142.616C33.9724 141.805 33.8018 140.84 33.8018 139.72C33.8018 138.6 33.9884 137.635 34.3618 136.824C34.7351 136.013 35.2471 135.389 35.8978 134.952C36.5591 134.504 37.3218 134.28 38.1858 134.28Z" fill="black"/>
	</symbol>

	<symbol width="317" height="152" viewBox="0 0 317 152" fill="none" id="chart_2">
		<line x1="50.75" y1="150" x2="50.75" stroke="black" stroke-opacity="0.7" stroke-width="0.5"/>
		<line x1="51" y1="139.75" x2="281" y2="139.75" stroke="black" stroke-opacity="0.7" stroke-width="0.5"/>
		<path d="M277 134.5V99L259 105L230.5 113L181.5 124L138.5 131.5L93 137L51 140.389L132 139.5L202.5 137.5L240.5 136L253.5 135.5L277 134.5Z" fill="#00FF19" fill-opacity="0.2"/>
		<path d="M51 140C140 140.209 194 138.5 277 134.5" stroke="#00FF19"/>
		<path d="M51 140C157.284 134.433 245.952 110.347 277 99" stroke="#00FF19"/>
		<path d="M51 140C150.662 137.261 203.108 133.579 277 118.5" stroke="black" stroke-width="2"/>
		<line x1="277.5" y1="136" x2="277.5" y2="143" stroke="black"/>
		<path d="M286.292 123V118.44C286.292 118.232 286.292 118.02 286.292 117.804C286.3 117.58 286.304 117.352 286.304 117.12C286.04 117.36 285.748 117.572 285.428 117.756C285.108 117.932 284.772 118.052 284.42 118.116L284.228 116.412C284.436 116.396 284.656 116.344 284.888 116.256C285.128 116.168 285.364 116.06 285.596 115.932C285.828 115.804 286.036 115.668 286.22 115.524C286.404 115.372 286.544 115.224 286.64 115.08H288.284V123H286.292ZM292.924 114.984C293.524 114.984 294.044 115.072 294.484 115.248C294.924 115.424 295.264 115.676 295.504 116.004C295.752 116.324 295.876 116.708 295.876 117.156C295.876 117.58 295.772 117.944 295.564 118.248C295.356 118.552 295.048 118.784 294.64 118.944V118.956C295.12 119.116 295.492 119.352 295.756 119.664C296.02 119.968 296.152 120.36 296.152 120.84C296.152 121.304 296.02 121.708 295.756 122.052C295.5 122.388 295.132 122.652 294.652 122.844C294.172 123.028 293.596 123.12 292.924 123.12C292.26 123.12 291.688 123.028 291.208 122.844C290.728 122.652 290.356 122.388 290.092 122.052C289.836 121.708 289.708 121.304 289.708 120.84C289.708 120.36 289.84 119.968 290.104 119.664C290.368 119.352 290.74 119.116 291.22 118.956V118.944C290.82 118.792 290.512 118.564 290.296 118.26C290.08 117.948 289.972 117.58 289.972 117.156C289.972 116.708 290.092 116.324 290.332 116.004C290.58 115.676 290.928 115.424 291.376 115.248C291.824 115.072 292.34 114.984 292.924 114.984ZM292.936 116.484C292.616 116.484 292.36 116.564 292.168 116.724C291.976 116.884 291.88 117.108 291.88 117.396C291.88 117.676 291.976 117.9 292.168 118.068C292.36 118.228 292.616 118.308 292.936 118.308C293.256 118.308 293.508 118.228 293.692 118.068C293.884 117.9 293.98 117.676 293.98 117.396C293.98 117.108 293.884 116.884 293.692 116.724C293.508 116.564 293.256 116.484 292.936 116.484ZM292.936 121.62C293.192 121.62 293.408 121.584 293.584 121.512C293.768 121.432 293.908 121.316 294.004 121.164C294.1 121.012 294.148 120.836 294.148 120.636C294.148 120.428 294.1 120.252 294.004 120.108C293.908 119.956 293.768 119.844 293.584 119.772C293.4 119.692 293.184 119.652 292.936 119.652C292.688 119.652 292.468 119.692 292.276 119.772C292.092 119.844 291.952 119.956 291.856 120.108C291.76 120.252 291.712 120.428 291.712 120.636C291.712 120.836 291.76 121.012 291.856 121.164C291.952 121.316 292.092 121.432 292.276 121.512C292.46 121.584 292.68 121.62 292.936 121.62ZM301.071 123V121.26H297.207V119.964C297.279 119.836 297.371 119.68 297.483 119.496C297.603 119.312 297.743 119.1 297.903 118.86L300.483 115.08H302.895V119.844H304.107V121.26H302.895V123H301.071ZM298.863 119.844H301.095V117.444C301.095 117.284 301.099 117.12 301.107 116.952C301.115 116.776 301.123 116.6 301.131 116.424H301.107C301.027 116.592 300.931 116.768 300.819 116.952C300.715 117.128 300.615 117.288 300.519 117.432L299.115 119.484C299.075 119.548 299.035 119.608 298.995 119.664C298.955 119.72 298.911 119.78 298.863 119.844ZM308.183 118.752V117.972H313.931L313.667 118.752H308.183ZM308.183 120.276V119.484H313.451L313.199 120.276H308.183ZM312.839 114.96C313.359 114.96 313.831 115.036 314.255 115.188C314.679 115.332 315.039 115.544 315.335 115.824C315.631 116.096 315.839 116.432 315.959 116.832L314.447 117.516C314.375 117.132 314.195 116.852 313.907 116.676C313.619 116.492 313.283 116.4 312.899 116.4C312.467 116.4 312.107 116.5 311.819 116.7C311.539 116.9 311.327 117.2 311.183 117.6C311.047 117.992 310.979 118.472 310.979 119.04C310.979 119.888 311.127 120.54 311.423 120.996C311.727 121.452 312.223 121.68 312.911 121.68C313.311 121.68 313.643 121.58 313.907 121.38C314.171 121.172 314.347 120.86 314.435 120.444L316.007 120.912C315.887 121.4 315.679 121.808 315.383 122.136C315.095 122.464 314.731 122.712 314.291 122.88C313.859 123.04 313.379 123.12 312.851 123.12C312.067 123.12 311.395 122.96 310.835 122.64C310.275 122.312 309.843 121.844 309.539 121.236C309.243 120.628 309.095 119.896 309.095 119.04C309.095 118.184 309.247 117.452 309.551 116.844C309.863 116.236 310.299 115.772 310.859 115.452C311.419 115.124 312.079 114.96 312.839 114.96Z" fill="black"/>
		<path d="M283.888 103V102.22C284.68 101.636 285.34 101.124 285.868 100.684C286.404 100.244 286.832 99.844 287.152 99.484C287.472 99.124 287.7 98.784 287.836 98.464C287.972 98.136 288.04 97.796 288.04 97.444C288.04 96.972 287.888 96.592 287.584 96.304C287.288 96.008 286.88 95.86 286.36 95.86C285.816 95.86 285.38 96.04 285.052 96.4C284.724 96.752 284.532 97.224 284.476 97.816L283.636 97.312C283.708 96.848 283.856 96.44 284.08 96.088C284.312 95.736 284.62 95.46 285.004 95.26C285.396 95.06 285.86 94.96 286.396 94.96C286.804 94.96 287.168 95.02 287.488 95.14C287.816 95.26 288.096 95.432 288.328 95.656C288.56 95.872 288.736 96.132 288.856 96.436C288.984 96.74 289.048 97.076 289.048 97.444C289.048 97.94 288.928 98.428 288.688 98.908C288.448 99.38 288.052 99.876 287.5 100.396C286.948 100.916 286.2 101.492 285.256 102.124V102.136C285.344 102.128 285.464 102.124 285.616 102.124C285.776 102.116 285.932 102.112 286.084 102.112C286.244 102.104 286.364 102.1 286.444 102.1H289.216V103H283.888ZM293.872 94.96C294.296 94.96 294.664 95.02 294.976 95.14C295.296 95.252 295.572 95.432 295.804 95.68C296.036 95.92 296.232 96.236 296.392 96.628L295.504 97.048C295.384 96.68 295.188 96.392 294.916 96.184C294.652 95.968 294.284 95.86 293.812 95.86C293.468 95.86 293.164 95.948 292.9 96.124C292.636 96.292 292.412 96.528 292.228 96.832C292.044 97.136 291.904 97.492 291.808 97.9C291.72 98.308 291.676 98.748 291.676 99.22C291.676 99.236 291.676 99.26 291.676 99.292C291.676 99.324 291.676 99.372 291.676 99.436H291.724C291.812 99.092 291.972 98.816 292.204 98.608C292.444 98.392 292.712 98.236 293.008 98.14C293.312 98.036 293.608 97.984 293.896 97.984C294.432 97.984 294.9 98.088 295.3 98.296C295.7 98.504 296.008 98.8 296.224 99.184C296.448 99.568 296.56 100.024 296.56 100.552C296.56 101.072 296.448 101.528 296.224 101.92C296 102.304 295.684 102.6 295.276 102.808C294.876 103.016 294.396 103.12 293.836 103.12C293.172 103.12 292.612 102.944 292.156 102.592C291.7 102.24 291.356 101.76 291.124 101.152C290.892 100.536 290.776 99.832 290.776 99.04C290.776 98.152 290.912 97.408 291.184 96.808C291.456 96.2 291.824 95.74 292.288 95.428C292.76 95.116 293.288 94.96 293.872 94.96ZM293.824 98.908C293.48 98.908 293.176 98.98 292.912 99.124C292.656 99.26 292.456 99.452 292.312 99.7C292.168 99.94 292.096 100.22 292.096 100.54C292.096 100.844 292.172 101.124 292.324 101.38C292.476 101.628 292.68 101.828 292.936 101.98C293.2 102.124 293.496 102.196 293.824 102.196C294.368 102.196 294.792 102.052 295.096 101.764C295.4 101.468 295.552 101.06 295.552 100.54C295.552 100.204 295.484 99.916 295.348 99.676C295.212 99.428 295.016 99.24 294.76 99.112C294.504 98.976 294.192 98.908 293.824 98.908ZM300.777 103.12C300.073 103.12 299.449 102.956 298.905 102.628C298.369 102.292 298.005 101.832 297.813 101.248L298.773 100.756C298.869 101.052 299.001 101.312 299.169 101.536C299.337 101.752 299.557 101.92 299.829 102.04C300.109 102.16 300.457 102.22 300.873 102.22C301.225 102.22 301.521 102.156 301.761 102.028C302.001 101.9 302.185 101.728 302.313 101.512C302.441 101.288 302.505 101.032 302.505 100.744C302.505 100.456 302.449 100.216 302.337 100.024C302.233 99.832 302.065 99.692 301.833 99.604C301.601 99.508 301.297 99.46 300.921 99.46C300.833 99.46 300.737 99.464 300.633 99.472C300.529 99.472 300.421 99.48 300.309 99.496V98.536C300.381 98.544 300.449 98.548 300.513 98.548C300.585 98.548 300.649 98.548 300.705 98.548C301.289 98.548 301.705 98.436 301.953 98.212C302.201 97.98 302.325 97.62 302.325 97.132C302.325 96.716 302.197 96.4 301.941 96.184C301.685 95.968 301.321 95.86 300.849 95.86C300.345 95.86 299.961 95.972 299.697 96.196C299.433 96.412 299.225 96.708 299.073 97.084L298.161 96.652C298.289 96.316 298.481 96.02 298.737 95.764C298.993 95.508 299.301 95.308 299.661 95.164C300.029 95.02 300.433 94.948 300.873 94.948C301.425 94.948 301.881 95.044 302.241 95.236C302.601 95.42 302.869 95.668 303.045 95.98C303.229 96.292 303.321 96.636 303.321 97.012C303.321 97.3 303.281 97.56 303.201 97.792C303.121 98.016 303.009 98.212 302.865 98.38C302.729 98.548 302.573 98.684 302.397 98.788C302.221 98.884 302.033 98.948 301.833 98.98V99.004C302.097 99.012 302.329 99.064 302.529 99.16C302.737 99.256 302.913 99.384 303.057 99.544C303.201 99.704 303.309 99.888 303.381 100.096C303.461 100.296 303.501 100.508 303.501 100.732C303.501 101.196 303.385 101.608 303.153 101.968C302.929 102.328 302.613 102.612 302.205 102.82C301.797 103.02 301.321 103.12 300.777 103.12ZM309.127 98.62V97.84H313.987L313.747 98.62H309.127ZM309.127 100.432V99.652H313.507L313.267 100.432H309.127ZM313.327 94.96C313.815 94.96 314.243 95.032 314.611 95.176C314.979 95.312 315.291 95.52 315.547 95.8C315.811 96.072 316.015 96.408 316.159 96.808L315.295 97.216C315.159 96.76 314.931 96.412 314.611 96.172C314.299 95.924 313.899 95.8 313.411 95.8C312.931 95.8 312.511 95.932 312.151 96.196C311.791 96.452 311.507 96.824 311.299 97.312C311.099 97.792 310.999 98.368 310.999 99.04C310.999 100.032 311.203 100.82 311.611 101.404C312.019 101.988 312.619 102.28 313.411 102.28C313.915 102.28 314.339 102.144 314.683 101.872C315.035 101.592 315.283 101.184 315.427 100.648L316.303 100.972C316.159 101.42 315.947 101.808 315.667 102.136C315.395 102.456 315.063 102.7 314.671 102.868C314.287 103.036 313.855 103.12 313.375 103.12C312.663 103.12 312.059 102.956 311.563 102.628C311.067 102.292 310.687 101.82 310.423 101.212C310.167 100.604 310.039 99.88 310.039 99.04C310.039 98.2 310.179 97.476 310.459 96.868C310.739 96.26 311.123 95.792 311.611 95.464C312.107 95.128 312.679 94.96 313.327 94.96Z" fill="black"/>
		<path d="M286.496 138V132.192C286.496 132.056 286.496 131.912 286.496 131.76C286.504 131.6 286.512 131.436 286.52 131.268C286.248 131.532 285.932 131.764 285.572 131.964C285.212 132.156 284.844 132.296 284.468 132.384L284.216 131.508C284.36 131.492 284.54 131.44 284.756 131.352C284.98 131.256 285.212 131.14 285.452 131.004C285.7 130.86 285.928 130.708 286.136 130.548C286.344 130.388 286.504 130.232 286.616 130.08H287.456V138H286.496ZM289.564 138V137.22C290.356 136.636 291.016 136.124 291.544 135.684C292.08 135.244 292.508 134.844 292.828 134.484C293.148 134.124 293.376 133.784 293.512 133.464C293.648 133.136 293.716 132.796 293.716 132.444C293.716 131.972 293.564 131.592 293.26 131.304C292.964 131.008 292.556 130.86 292.036 130.86C291.492 130.86 291.056 131.04 290.728 131.4C290.4 131.752 290.208 132.224 290.152 132.816L289.312 132.312C289.384 131.848 289.532 131.44 289.756 131.088C289.988 130.736 290.296 130.46 290.68 130.26C291.072 130.06 291.536 129.96 292.072 129.96C292.48 129.96 292.844 130.02 293.164 130.14C293.492 130.26 293.772 130.432 294.004 130.656C294.236 130.872 294.412 131.132 294.532 131.436C294.66 131.74 294.724 132.076 294.724 132.444C294.724 132.94 294.604 133.428 294.364 133.908C294.124 134.38 293.728 134.876 293.176 135.396C292.624 135.916 291.876 136.492 290.932 137.124V137.136C291.02 137.128 291.14 137.124 291.292 137.124C291.452 137.116 291.608 137.112 291.76 137.112C291.92 137.104 292.04 137.1 292.12 137.1H294.892V138H289.564ZM296.56 138V137.22C297.352 136.636 298.012 136.124 298.54 135.684C299.076 135.244 299.504 134.844 299.824 134.484C300.144 134.124 300.372 133.784 300.508 133.464C300.644 133.136 300.712 132.796 300.712 132.444C300.712 131.972 300.56 131.592 300.256 131.304C299.96 131.008 299.552 130.86 299.032 130.86C298.488 130.86 298.052 131.04 297.724 131.4C297.396 131.752 297.204 132.224 297.148 132.816L296.308 132.312C296.38 131.848 296.528 131.44 296.752 131.088C296.984 130.736 297.292 130.46 297.676 130.26C298.068 130.06 298.532 129.96 299.068 129.96C299.476 129.96 299.84 130.02 300.16 130.14C300.488 130.26 300.768 130.432 301 130.656C301.232 130.872 301.408 131.132 301.528 131.436C301.656 131.74 301.72 132.076 301.72 132.444C301.72 132.94 301.6 133.428 301.36 133.908C301.12 134.38 300.724 134.876 300.172 135.396C299.62 135.916 298.872 136.492 297.928 137.124V137.136C298.016 137.128 298.136 137.124 298.288 137.124C298.448 137.116 298.604 137.112 298.756 137.112C298.916 137.104 299.036 137.1 299.116 137.1H301.888V138H296.56ZM307.502 133.62V132.84H312.362L312.122 133.62H307.502ZM307.502 135.432V134.652H311.882L311.642 135.432H307.502ZM311.702 129.96C312.19 129.96 312.618 130.032 312.986 130.176C313.354 130.312 313.666 130.52 313.922 130.8C314.186 131.072 314.39 131.408 314.534 131.808L313.67 132.216C313.534 131.76 313.306 131.412 312.986 131.172C312.674 130.924 312.274 130.8 311.786 130.8C311.306 130.8 310.886 130.932 310.526 131.196C310.166 131.452 309.882 131.824 309.674 132.312C309.474 132.792 309.374 133.368 309.374 134.04C309.374 135.032 309.578 135.82 309.986 136.404C310.394 136.988 310.994 137.28 311.786 137.28C312.29 137.28 312.714 137.144 313.058 136.872C313.41 136.592 313.658 136.184 313.802 135.648L314.678 135.972C314.534 136.42 314.322 136.808 314.042 137.136C313.77 137.456 313.438 137.7 313.046 137.868C312.662 138.036 312.23 138.12 311.75 138.12C311.038 138.12 310.434 137.956 309.938 137.628C309.442 137.292 309.062 136.82 308.798 136.212C308.542 135.604 308.414 134.88 308.414 134.04C308.414 133.2 308.554 132.476 308.834 131.868C309.114 131.26 309.498 130.792 309.986 130.464C310.482 130.128 311.054 129.96 311.702 129.96Z" fill="black"/>
		<path d="M3.328 145V137.256C3.328 137.075 3.328 136.883 3.328 136.68C3.33867 136.467 3.34933 136.248 3.36 136.024C2.99733 136.376 2.576 136.685 2.096 136.952C1.616 137.208 1.12533 137.395 0.624 137.512L0.288 136.344C0.48 136.323 0.72 136.253 1.008 136.136C1.30667 136.008 1.616 135.853 1.936 135.672C2.26667 135.48 2.57067 135.277 2.848 135.064C3.12533 134.851 3.33867 134.643 3.488 134.44H4.608V145H3.328ZM11.2104 145.16C10.0157 145.16 9.06104 144.696 8.34637 143.768C7.63171 142.84 7.27438 141.491 7.27438 139.72C7.27438 137.949 7.63171 136.6 8.34637 135.672C9.06104 134.744 10.0157 134.28 11.2104 134.28C12.4157 134.28 13.3704 134.744 14.0744 135.672C14.789 136.6 15.1464 137.949 15.1464 139.72C15.1464 141.491 14.789 142.84 14.0744 143.768C13.3704 144.696 12.4157 145.16 11.2104 145.16ZM11.2104 144.008C11.7757 144.008 12.2504 143.848 12.6344 143.528C13.029 143.197 13.3224 142.712 13.5144 142.072C13.717 141.432 13.8184 140.648 13.8184 139.72C13.8184 138.792 13.717 138.008 13.5144 137.368C13.3224 136.728 13.029 136.248 12.6344 135.928C12.2504 135.597 11.7757 135.432 11.2104 135.432C10.645 135.432 10.165 135.597 9.77038 135.928C9.38638 136.248 9.09304 136.728 8.89038 137.368C8.69838 138.008 8.60238 138.792 8.60238 139.72C8.60238 140.648 8.69838 141.432 8.89038 142.072C9.09304 142.712 9.38638 143.197 9.77038 143.528C10.165 143.848 10.645 144.008 11.2104 144.008ZM21.1635 145.16C19.9688 145.16 19.0142 144.696 18.2995 143.768C17.5848 142.84 17.2275 141.491 17.2275 139.72C17.2275 137.949 17.5848 136.6 18.2995 135.672C19.0142 134.744 19.9688 134.28 21.1635 134.28C22.3688 134.28 23.3235 134.744 24.0275 135.672C24.7422 136.6 25.0995 137.949 25.0995 139.72C25.0995 141.491 24.7422 142.84 24.0275 143.768C23.3235 144.696 22.3688 145.16 21.1635 145.16ZM21.1635 144.008C21.7288 144.008 22.2035 143.848 22.5875 143.528C22.9822 143.197 23.2755 142.712 23.4675 142.072C23.6702 141.432 23.7715 140.648 23.7715 139.72C23.7715 138.792 23.6702 138.008 23.4675 137.368C23.2755 136.728 22.9822 136.248 22.5875 135.928C22.2035 135.597 21.7288 135.432 21.1635 135.432C20.5982 135.432 20.1182 135.597 19.7235 135.928C19.3395 136.248 19.0462 136.728 18.8435 137.368C18.6515 138.008 18.5555 138.792 18.5555 139.72C18.5555 140.648 18.6515 141.432 18.8435 142.072C19.0462 142.712 19.3395 143.197 19.7235 143.528C20.1182 143.848 20.5982 144.008 21.1635 144.008ZM32.5858 139.16V138.12H39.0658L38.7458 139.16H32.5858ZM32.5858 141.576V140.536H38.4258L38.1058 141.576H32.5858ZM38.1858 134.28C38.8364 134.28 39.4071 134.376 39.8978 134.568C40.3884 134.749 40.8044 135.027 41.1458 135.4C41.4978 135.763 41.7698 136.211 41.9618 136.744L40.8098 137.288C40.6284 136.68 40.3244 136.216 39.8978 135.896C39.4818 135.565 38.9484 135.4 38.2978 135.4C37.6578 135.4 37.0978 135.576 36.6178 135.928C36.1378 136.269 35.7591 136.765 35.4818 137.416C35.2151 138.056 35.0818 138.824 35.0818 139.72C35.0818 141.043 35.3538 142.093 35.8978 142.872C36.4418 143.651 37.2418 144.04 38.2978 144.04C38.9698 144.04 39.5351 143.859 39.9938 143.496C40.4631 143.123 40.7938 142.579 40.9858 141.864L42.1538 142.296C41.9618 142.893 41.6791 143.411 41.3058 143.848C40.9431 144.275 40.5004 144.6 39.9778 144.824C39.4658 145.048 38.8898 145.16 38.2498 145.16C37.3004 145.16 36.4951 144.941 35.8338 144.504C35.1724 144.056 34.6658 143.427 34.3138 142.616C33.9724 141.805 33.8018 140.84 33.8018 139.72C33.8018 138.6 33.9884 137.635 34.3618 136.824C34.7351 136.013 35.2471 135.389 35.8978 134.952C36.5591 134.504 37.3218 134.28 38.1858 134.28Z" fill="black"/>
	</symbol>

	<symbol width="333" height="152" viewBox="0 0 333 152" fill="none" id="chart_3">
		<line x1="50.75" y1="150" x2="50.75" stroke="black" stroke-opacity="0.7" stroke-width="0.5"/>
		<line x1="51" y1="139.75" x2="281" y2="139.75" stroke="black" stroke-opacity="0.7" stroke-width="0.5"/>
		<path d="M277 146V73L248 88L221.5 99.5L177 115L136.5 126.5L93 135L51 140.389L132 141L203 142L240.5 143.5L258.5 144.5L277 146Z" fill="#00FF19" fill-opacity="0.2"/>
		<path d="M51 140C140 140.209 192.5 140.135 277 141" stroke="#00FF19"/>
		<path d="M51 140C157.284 130.903 245.952 91.5428 277 73" stroke="#00FF19"/>
		<path d="M51 140C150.662 137.261 203.108 134.079 277 119" stroke="black" stroke-width="2"/>
		<line x1="277.5" y1="136" x2="277.5" y2="143" stroke="black"/>
		<path d="M286.496 144V138.192C286.496 138.056 286.496 137.912 286.496 137.76C286.504 137.6 286.512 137.436 286.52 137.268C286.248 137.532 285.932 137.764 285.572 137.964C285.212 138.156 284.844 138.296 284.468 138.384L284.216 137.508C284.36 137.492 284.54 137.44 284.756 137.352C284.98 137.256 285.212 137.14 285.452 137.004C285.7 136.86 285.928 136.708 286.136 136.548C286.344 136.388 286.504 136.232 286.616 136.08H287.456V144H286.496ZM292.408 144.12C291.512 144.12 290.796 143.772 290.26 143.076C289.724 142.38 289.456 141.368 289.456 140.04C289.456 138.712 289.724 137.7 290.26 137.004C290.796 136.308 291.512 135.96 292.408 135.96C293.312 135.96 294.028 136.308 294.556 137.004C295.092 137.7 295.36 138.712 295.36 140.04C295.36 141.368 295.092 142.38 294.556 143.076C294.028 143.772 293.312 144.12 292.408 144.12ZM292.408 143.256C292.832 143.256 293.188 143.136 293.476 142.896C293.772 142.648 293.992 142.284 294.136 141.804C294.288 141.324 294.364 140.736 294.364 140.04C294.364 139.344 294.288 138.756 294.136 138.276C293.992 137.796 293.772 137.436 293.476 137.196C293.188 136.948 292.832 136.824 292.408 136.824C291.984 136.824 291.624 136.948 291.328 137.196C291.04 137.436 290.82 137.796 290.668 138.276C290.524 138.756 290.452 139.344 290.452 140.04C290.452 140.736 290.524 141.324 290.668 141.804C290.82 142.284 291.04 142.648 291.328 142.896C291.624 143.136 291.984 143.256 292.408 143.256ZM305.518 136.08V141.288C305.518 142.176 305.278 142.872 304.798 143.376C304.326 143.872 303.67 144.12 302.83 144.12C302.238 144.12 301.75 144.008 301.366 143.784C300.982 143.56 300.714 143.244 300.562 142.836C300.418 142.42 300.398 141.936 300.502 141.384L301.39 141.204C301.302 141.884 301.362 142.392 301.57 142.728C301.786 143.056 302.194 143.22 302.794 143.22C303.474 143.22 303.938 143.036 304.186 142.668C304.434 142.292 304.558 141.752 304.558 141.048V136.08H305.518ZM311.143 140.124C311.143 139.676 311.023 139.332 310.783 139.092C310.543 138.844 310.203 138.72 309.763 138.72C309.347 138.72 308.995 138.812 308.707 138.996C308.419 139.172 308.207 139.46 308.071 139.86L307.291 139.38C307.451 138.932 307.747 138.572 308.179 138.3C308.611 138.02 309.147 137.88 309.787 137.88C310.219 137.88 310.611 137.956 310.963 138.108C311.315 138.252 311.591 138.476 311.791 138.78C311.999 139.076 312.103 139.46 312.103 139.932V142.836C312.103 143.124 312.255 143.268 312.559 143.268C312.711 143.268 312.859 143.248 313.003 143.208L312.955 143.964C312.795 144.044 312.587 144.084 312.331 144.084C312.099 144.084 311.891 144.04 311.707 143.952C311.523 143.864 311.379 143.732 311.275 143.556C311.171 143.372 311.119 143.144 311.119 142.872V142.752L311.359 142.788C311.263 143.1 311.099 143.356 310.867 143.556C310.635 143.748 310.375 143.892 310.087 143.988C309.799 144.076 309.515 144.12 309.235 144.12C308.883 144.12 308.555 144.06 308.251 143.94C307.947 143.82 307.703 143.64 307.519 143.4C307.343 143.152 307.255 142.848 307.255 142.488C307.255 142.04 307.403 141.672 307.699 141.384C308.003 141.088 308.423 140.888 308.959 140.784L311.335 140.316V141.108L309.403 141.504C309.011 141.584 308.719 141.696 308.527 141.84C308.335 141.984 308.239 142.184 308.239 142.44C308.239 142.688 308.335 142.892 308.527 143.052C308.727 143.204 309.007 143.28 309.367 143.28C309.599 143.28 309.819 143.252 310.027 143.196C310.243 143.132 310.435 143.04 310.603 142.92C310.771 142.792 310.903 142.636 310.999 142.452C311.095 142.26 311.143 142.036 311.143 141.78V140.124ZM314.436 144V135.24H315.396V138.9C315.604 138.54 315.88 138.28 316.224 138.12C316.568 137.96 316.944 137.88 317.352 137.88C317.784 137.88 318.176 137.964 318.528 138.132C318.88 138.292 319.16 138.54 319.368 138.876C319.584 139.212 319.692 139.64 319.692 140.16V144H318.732V140.496C318.732 139.832 318.588 139.372 318.3 139.116C318.02 138.852 317.672 138.72 317.256 138.72C316.968 138.72 316.68 138.788 316.392 138.924C316.104 139.06 315.864 139.284 315.672 139.596C315.488 139.9 315.396 140.308 315.396 140.82V144H314.436ZM321.866 144V138H322.646L322.778 138.984C322.946 138.616 323.19 138.34 323.51 138.156C323.838 137.972 324.234 137.88 324.698 137.88C324.802 137.88 324.914 137.888 325.034 137.904C325.162 137.92 325.27 137.952 325.358 138L325.19 138.876C325.102 138.844 325.006 138.82 324.902 138.804C324.798 138.788 324.65 138.78 324.458 138.78C324.21 138.78 323.958 138.852 323.702 138.996C323.454 139.14 323.246 139.36 323.078 139.656C322.91 139.944 322.826 140.312 322.826 140.76V144H321.866ZM329.085 144.12C328.517 144.12 328.009 143.996 327.561 143.748C327.121 143.5 326.777 143.144 326.529 142.68C326.281 142.208 326.157 141.648 326.157 141C326.157 140.352 326.281 139.796 326.529 139.332C326.777 138.86 327.117 138.5 327.549 138.252C327.981 138.004 328.473 137.88 329.025 137.88C329.585 137.88 330.061 138 330.453 138.24C330.853 138.48 331.157 138.808 331.365 139.224C331.573 139.632 331.677 140.092 331.677 140.604C331.677 140.74 331.673 140.864 331.665 140.976C331.657 141.088 331.645 141.188 331.629 141.276H326.781V140.424H331.209L330.717 140.52C330.717 139.944 330.557 139.5 330.237 139.188C329.925 138.876 329.513 138.72 329.001 138.72C328.609 138.72 328.269 138.812 327.981 138.996C327.701 139.172 327.481 139.432 327.321 139.776C327.169 140.112 327.093 140.52 327.093 141C327.093 141.472 327.173 141.88 327.333 142.224C327.493 142.568 327.717 142.832 328.005 143.016C328.301 143.192 328.653 143.28 329.061 143.28C329.501 143.28 329.857 143.196 330.129 143.028C330.409 142.86 330.633 142.632 330.801 142.344L331.557 142.788C331.405 143.06 331.209 143.296 330.969 143.496C330.737 143.696 330.461 143.852 330.141 143.964C329.829 144.068 329.477 144.12 329.085 144.12Z" fill="black"/>
		<path d="M286.292 123V118.44C286.292 118.232 286.292 118.02 286.292 117.804C286.3 117.58 286.304 117.352 286.304 117.12C286.04 117.36 285.748 117.572 285.428 117.756C285.108 117.932 284.772 118.052 284.42 118.116L284.228 116.412C284.436 116.396 284.656 116.344 284.888 116.256C285.128 116.168 285.364 116.06 285.596 115.932C285.828 115.804 286.036 115.668 286.22 115.524C286.404 115.372 286.544 115.224 286.64 115.08H288.284V123H286.292ZM292.924 114.984C293.524 114.984 294.044 115.072 294.484 115.248C294.924 115.424 295.264 115.676 295.504 116.004C295.752 116.324 295.876 116.708 295.876 117.156C295.876 117.58 295.772 117.944 295.564 118.248C295.356 118.552 295.048 118.784 294.64 118.944V118.956C295.12 119.116 295.492 119.352 295.756 119.664C296.02 119.968 296.152 120.36 296.152 120.84C296.152 121.304 296.02 121.708 295.756 122.052C295.5 122.388 295.132 122.652 294.652 122.844C294.172 123.028 293.596 123.12 292.924 123.12C292.26 123.12 291.688 123.028 291.208 122.844C290.728 122.652 290.356 122.388 290.092 122.052C289.836 121.708 289.708 121.304 289.708 120.84C289.708 120.36 289.84 119.968 290.104 119.664C290.368 119.352 290.74 119.116 291.22 118.956V118.944C290.82 118.792 290.512 118.564 290.296 118.26C290.08 117.948 289.972 117.58 289.972 117.156C289.972 116.708 290.092 116.324 290.332 116.004C290.58 115.676 290.928 115.424 291.376 115.248C291.824 115.072 292.34 114.984 292.924 114.984ZM292.936 116.484C292.616 116.484 292.36 116.564 292.168 116.724C291.976 116.884 291.88 117.108 291.88 117.396C291.88 117.676 291.976 117.9 292.168 118.068C292.36 118.228 292.616 118.308 292.936 118.308C293.256 118.308 293.508 118.228 293.692 118.068C293.884 117.9 293.98 117.676 293.98 117.396C293.98 117.108 293.884 116.884 293.692 116.724C293.508 116.564 293.256 116.484 292.936 116.484ZM292.936 121.62C293.192 121.62 293.408 121.584 293.584 121.512C293.768 121.432 293.908 121.316 294.004 121.164C294.1 121.012 294.148 120.836 294.148 120.636C294.148 120.428 294.1 120.252 294.004 120.108C293.908 119.956 293.768 119.844 293.584 119.772C293.4 119.692 293.184 119.652 292.936 119.652C292.688 119.652 292.468 119.692 292.276 119.772C292.092 119.844 291.952 119.956 291.856 120.108C291.76 120.252 291.712 120.428 291.712 120.636C291.712 120.836 291.76 121.012 291.856 121.164C291.952 121.316 292.092 121.432 292.276 121.512C292.46 121.584 292.68 121.62 292.936 121.62ZM297.411 123V121.68C298.091 121.256 298.671 120.86 299.151 120.492C299.631 120.124 300.019 119.776 300.315 119.448C300.619 119.12 300.843 118.808 300.987 118.512C301.131 118.216 301.203 117.928 301.203 117.648C301.203 117.344 301.111 117.092 300.927 116.892C300.751 116.684 300.487 116.58 300.135 116.58C299.759 116.58 299.467 116.72 299.259 117C299.051 117.272 298.939 117.672 298.923 118.2L297.159 117.66C297.175 117.068 297.315 116.572 297.579 116.172C297.851 115.772 298.219 115.472 298.683 115.272C299.147 115.064 299.675 114.96 300.267 114.96C300.787 114.96 301.235 115.036 301.611 115.188C301.995 115.332 302.307 115.528 302.547 115.776C302.787 116.016 302.963 116.288 303.075 116.592C303.195 116.888 303.255 117.192 303.255 117.504C303.255 118.016 303.123 118.496 302.859 118.944C302.595 119.384 302.211 119.812 301.707 120.228C301.211 120.636 300.607 121.048 299.895 121.464V121.476C300.031 121.468 300.191 121.46 300.375 121.452C300.559 121.444 300.751 121.44 300.951 121.44C301.151 121.432 301.331 121.428 301.491 121.428H303.351V123H297.411ZM307.573 118.752V117.972H313.321L313.057 118.752H307.573ZM307.573 120.276V119.484H312.841L312.589 120.276H307.573ZM312.229 114.96C312.749 114.96 313.221 115.036 313.645 115.188C314.069 115.332 314.429 115.544 314.725 115.824C315.021 116.096 315.229 116.432 315.349 116.832L313.837 117.516C313.765 117.132 313.585 116.852 313.297 116.676C313.009 116.492 312.673 116.4 312.289 116.4C311.857 116.4 311.497 116.5 311.209 116.7C310.929 116.9 310.717 117.2 310.573 117.6C310.437 117.992 310.369 118.472 310.369 119.04C310.369 119.888 310.517 120.54 310.813 120.996C311.117 121.452 311.613 121.68 312.301 121.68C312.701 121.68 313.033 121.58 313.297 121.38C313.561 121.172 313.737 120.86 313.825 120.444L315.397 120.912C315.277 121.4 315.069 121.808 314.773 122.136C314.485 122.464 314.121 122.712 313.681 122.88C313.249 123.04 312.769 123.12 312.241 123.12C311.457 123.12 310.785 122.96 310.225 122.64C309.665 122.312 309.233 121.844 308.929 121.236C308.633 120.628 308.485 119.896 308.485 119.04C308.485 118.184 308.637 117.452 308.941 116.844C309.253 116.236 309.689 115.772 310.249 115.452C310.809 115.124 311.469 114.96 312.229 114.96Z" fill="black"/>
		<path d="M287.48 77.12C286.776 77.12 286.152 76.956 285.608 76.628C285.072 76.292 284.708 75.832 284.516 75.248L285.476 74.756C285.572 75.052 285.704 75.312 285.872 75.536C286.04 75.752 286.26 75.92 286.532 76.04C286.812 76.16 287.16 76.22 287.576 76.22C287.928 76.22 288.224 76.156 288.464 76.028C288.704 75.9 288.888 75.728 289.016 75.512C289.144 75.288 289.208 75.032 289.208 74.744C289.208 74.456 289.152 74.216 289.04 74.024C288.936 73.832 288.768 73.692 288.536 73.604C288.304 73.508 288 73.46 287.624 73.46C287.536 73.46 287.44 73.464 287.336 73.472C287.232 73.472 287.124 73.48 287.012 73.496V72.536C287.084 72.544 287.152 72.548 287.216 72.548C287.288 72.548 287.352 72.548 287.408 72.548C287.992 72.548 288.408 72.436 288.656 72.212C288.904 71.98 289.028 71.62 289.028 71.132C289.028 70.716 288.9 70.4 288.644 70.184C288.388 69.968 288.024 69.86 287.552 69.86C287.048 69.86 286.664 69.972 286.4 70.196C286.136 70.412 285.928 70.708 285.776 71.084L284.864 70.652C284.992 70.316 285.184 70.02 285.44 69.764C285.696 69.508 286.004 69.308 286.364 69.164C286.732 69.02 287.136 68.948 287.576 68.948C288.128 68.948 288.584 69.044 288.944 69.236C289.304 69.42 289.572 69.668 289.748 69.98C289.932 70.292 290.024 70.636 290.024 71.012C290.024 71.3 289.984 71.56 289.904 71.792C289.824 72.016 289.712 72.212 289.568 72.38C289.432 72.548 289.276 72.684 289.1 72.788C288.924 72.884 288.736 72.948 288.536 72.98V73.004C288.8 73.012 289.032 73.064 289.232 73.16C289.44 73.256 289.616 73.384 289.76 73.544C289.904 73.704 290.012 73.888 290.084 74.096C290.164 74.296 290.204 74.508 290.204 74.732C290.204 75.196 290.088 75.608 289.856 75.968C289.632 76.328 289.316 76.612 288.908 76.82C288.5 77.02 288.024 77.12 287.48 77.12ZM294.872 68.96C295.296 68.96 295.664 69.02 295.976 69.14C296.296 69.252 296.572 69.432 296.804 69.68C297.036 69.92 297.232 70.236 297.392 70.628L296.504 71.048C296.384 70.68 296.188 70.392 295.916 70.184C295.652 69.968 295.284 69.86 294.812 69.86C294.468 69.86 294.164 69.948 293.9 70.124C293.636 70.292 293.412 70.528 293.228 70.832C293.044 71.136 292.904 71.492 292.808 71.9C292.72 72.308 292.676 72.748 292.676 73.22C292.676 73.236 292.676 73.26 292.676 73.292C292.676 73.324 292.676 73.372 292.676 73.436H292.724C292.812 73.092 292.972 72.816 293.204 72.608C293.444 72.392 293.712 72.236 294.008 72.14C294.312 72.036 294.608 71.984 294.896 71.984C295.432 71.984 295.9 72.088 296.3 72.296C296.7 72.504 297.008 72.8 297.224 73.184C297.448 73.568 297.56 74.024 297.56 74.552C297.56 75.072 297.448 75.528 297.224 75.92C297 76.304 296.684 76.6 296.276 76.808C295.876 77.016 295.396 77.12 294.836 77.12C294.172 77.12 293.612 76.944 293.156 76.592C292.7 76.24 292.356 75.76 292.124 75.152C291.892 74.536 291.776 73.832 291.776 73.04C291.776 72.152 291.912 71.408 292.184 70.808C292.456 70.2 292.824 69.74 293.288 69.428C293.76 69.116 294.288 68.96 294.872 68.96ZM294.824 72.908C294.48 72.908 294.176 72.98 293.912 73.124C293.656 73.26 293.456 73.452 293.312 73.7C293.168 73.94 293.096 74.22 293.096 74.54C293.096 74.844 293.172 75.124 293.324 75.38C293.476 75.628 293.68 75.828 293.936 75.98C294.2 76.124 294.496 76.196 294.824 76.196C295.368 76.196 295.792 76.052 296.096 75.764C296.4 75.468 296.552 75.06 296.552 74.54C296.552 74.204 296.484 73.916 296.348 73.676C296.212 73.428 296.016 73.24 295.76 73.112C295.504 72.976 295.192 72.908 294.824 72.908ZM301.861 68.96C302.525 68.96 303.085 69.136 303.541 69.488C303.997 69.832 304.341 70.312 304.573 70.928C304.805 71.536 304.921 72.24 304.921 73.04C304.921 73.928 304.805 74.676 304.573 75.284C304.341 75.884 303.997 76.34 303.541 76.652C303.093 76.964 302.537 77.12 301.873 77.12C301.217 77.12 300.653 76.968 300.181 76.664C299.709 76.36 299.357 75.916 299.125 75.332L300.073 74.828C300.201 75.244 300.409 75.58 300.697 75.836C300.993 76.092 301.397 76.22 301.909 76.22C302.325 76.22 302.669 76.14 302.941 75.98C303.221 75.812 303.441 75.576 303.601 75.272C303.761 74.96 303.873 74.588 303.937 74.156C304.009 73.724 304.045 73.244 304.045 72.716C304.045 72.7 304.045 72.684 304.045 72.668C304.045 72.644 304.045 72.624 304.045 72.608H303.997C303.901 72.968 303.733 73.26 303.493 73.484C303.253 73.7 302.981 73.856 302.677 73.952C302.381 74.048 302.085 74.096 301.789 74.096C301.269 74.096 300.809 73.996 300.409 73.796C300.009 73.588 299.697 73.3 299.473 72.932C299.249 72.564 299.137 72.128 299.137 71.624C299.137 71.08 299.245 70.612 299.461 70.22C299.677 69.82 299.989 69.512 300.397 69.296C300.805 69.072 301.293 68.96 301.861 68.96ZM301.873 69.884C301.313 69.884 300.885 70.04 300.589 70.352C300.293 70.656 300.145 71.084 300.145 71.636C300.145 72.108 300.301 72.484 300.613 72.764C300.925 73.036 301.345 73.172 301.873 73.172C302.217 73.172 302.517 73.104 302.773 72.968C303.037 72.824 303.241 72.632 303.385 72.392C303.529 72.144 303.601 71.86 303.601 71.54C303.601 71.204 303.529 70.912 303.385 70.664C303.241 70.416 303.037 70.224 302.773 70.088C302.517 69.952 302.217 69.884 301.873 69.884ZM310.537 72.62V71.84H315.397L315.157 72.62H310.537ZM310.537 74.432V73.652H314.917L314.677 74.432H310.537ZM314.737 68.96C315.225 68.96 315.653 69.032 316.021 69.176C316.389 69.312 316.701 69.52 316.957 69.8C317.221 70.072 317.425 70.408 317.569 70.808L316.705 71.216C316.569 70.76 316.341 70.412 316.021 70.172C315.709 69.924 315.309 69.8 314.821 69.8C314.341 69.8 313.921 69.932 313.561 70.196C313.201 70.452 312.917 70.824 312.709 71.312C312.509 71.792 312.409 72.368 312.409 73.04C312.409 74.032 312.613 74.82 313.021 75.404C313.429 75.988 314.029 76.28 314.821 76.28C315.325 76.28 315.749 76.144 316.093 75.872C316.445 75.592 316.693 75.184 316.837 74.648L317.713 74.972C317.569 75.42 317.357 75.808 317.077 76.136C316.805 76.456 316.473 76.7 316.081 76.868C315.697 77.036 315.265 77.12 314.785 77.12C314.073 77.12 313.469 76.956 312.973 76.628C312.477 76.292 312.097 75.82 311.833 75.212C311.577 74.604 311.449 73.88 311.449 73.04C311.449 72.2 311.589 71.476 311.869 70.868C312.149 70.26 312.533 69.792 313.021 69.464C313.517 69.128 314.089 68.96 314.737 68.96Z" fill="black"/>
		<path d="M3.328 145V137.256C3.328 137.075 3.328 136.883 3.328 136.68C3.33867 136.467 3.34933 136.248 3.36 136.024C2.99733 136.376 2.576 136.685 2.096 136.952C1.616 137.208 1.12533 137.395 0.624 137.512L0.288 136.344C0.48 136.323 0.72 136.253 1.008 136.136C1.30667 136.008 1.616 135.853 1.936 135.672C2.26667 135.48 2.57067 135.277 2.848 135.064C3.12533 134.851 3.33867 134.643 3.488 134.44H4.608V145H3.328ZM11.2104 145.16C10.0157 145.16 9.06104 144.696 8.34637 143.768C7.63171 142.84 7.27438 141.491 7.27438 139.72C7.27438 137.949 7.63171 136.6 8.34637 135.672C9.06104 134.744 10.0157 134.28 11.2104 134.28C12.4157 134.28 13.3704 134.744 14.0744 135.672C14.789 136.6 15.1464 137.949 15.1464 139.72C15.1464 141.491 14.789 142.84 14.0744 143.768C13.3704 144.696 12.4157 145.16 11.2104 145.16ZM11.2104 144.008C11.7757 144.008 12.2504 143.848 12.6344 143.528C13.029 143.197 13.3224 142.712 13.5144 142.072C13.717 141.432 13.8184 140.648 13.8184 139.72C13.8184 138.792 13.717 138.008 13.5144 137.368C13.3224 136.728 13.029 136.248 12.6344 135.928C12.2504 135.597 11.7757 135.432 11.2104 135.432C10.645 135.432 10.165 135.597 9.77038 135.928C9.38638 136.248 9.09304 136.728 8.89038 137.368C8.69838 138.008 8.60238 138.792 8.60238 139.72C8.60238 140.648 8.69838 141.432 8.89038 142.072C9.09304 142.712 9.38638 143.197 9.77038 143.528C10.165 143.848 10.645 144.008 11.2104 144.008ZM21.1635 145.16C19.9688 145.16 19.0142 144.696 18.2995 143.768C17.5848 142.84 17.2275 141.491 17.2275 139.72C17.2275 137.949 17.5848 136.6 18.2995 135.672C19.0142 134.744 19.9688 134.28 21.1635 134.28C22.3688 134.28 23.3235 134.744 24.0275 135.672C24.7422 136.6 25.0995 137.949 25.0995 139.72C25.0995 141.491 24.7422 142.84 24.0275 143.768C23.3235 144.696 22.3688 145.16 21.1635 145.16ZM21.1635 144.008C21.7288 144.008 22.2035 143.848 22.5875 143.528C22.9822 143.197 23.2755 142.712 23.4675 142.072C23.6702 141.432 23.7715 140.648 23.7715 139.72C23.7715 138.792 23.6702 138.008 23.4675 137.368C23.2755 136.728 22.9822 136.248 22.5875 135.928C22.2035 135.597 21.7288 135.432 21.1635 135.432C20.5982 135.432 20.1182 135.597 19.7235 135.928C19.3395 136.248 19.0462 136.728 18.8435 137.368C18.6515 138.008 18.5555 138.792 18.5555 139.72C18.5555 140.648 18.6515 141.432 18.8435 142.072C19.0462 142.712 19.3395 143.197 19.7235 143.528C20.1182 143.848 20.5982 144.008 21.1635 144.008ZM32.5858 139.16V138.12H39.0658L38.7458 139.16H32.5858ZM32.5858 141.576V140.536H38.4258L38.1058 141.576H32.5858ZM38.1858 134.28C38.8364 134.28 39.4071 134.376 39.8978 134.568C40.3884 134.749 40.8044 135.027 41.1458 135.4C41.4978 135.763 41.7698 136.211 41.9618 136.744L40.8098 137.288C40.6284 136.68 40.3244 136.216 39.8978 135.896C39.4818 135.565 38.9484 135.4 38.2978 135.4C37.6578 135.4 37.0978 135.576 36.6178 135.928C36.1378 136.269 35.7591 136.765 35.4818 137.416C35.2151 138.056 35.0818 138.824 35.0818 139.72C35.0818 141.043 35.3538 142.093 35.8978 142.872C36.4418 143.651 37.2418 144.04 38.2978 144.04C38.9698 144.04 39.5351 143.859 39.9938 143.496C40.4631 143.123 40.7938 142.579 40.9858 141.864L42.1538 142.296C41.9618 142.893 41.6791 143.411 41.3058 143.848C40.9431 144.275 40.5004 144.6 39.9778 144.824C39.4658 145.048 38.8898 145.16 38.2498 145.16C37.3004 145.16 36.4951 144.941 35.8338 144.504C35.1724 144.056 34.6658 143.427 34.3138 142.616C33.9724 141.805 33.8018 140.84 33.8018 139.72C33.8018 138.6 33.9884 137.635 34.3618 136.824C34.7351 136.013 35.2471 135.389 35.8978 134.952C36.5591 134.504 37.3218 134.28 38.1858 134.28Z" fill="black"/>
	</symbol>

	<symbol width="333" height="174" viewBox="0 0 333 174" fill="none" id="chart_4">
		<line x1="50.75" y1="150" x2="50.75" stroke="black" stroke-opacity="0.7" stroke-width="0.5"/>
		<line x1="51" y1="139.75" x2="281" y2="139.75" stroke="black" stroke-opacity="0.7" stroke-width="0.5"/>
		<path d="M277 146V46L248 67L217 85.5L177 105L134.5 121.5L93 132.5L51 140.389L132 141L203 142L240.5 143.5L258.5 144.5L277 146Z" fill="#00FF19" fill-opacity="0.2"/>
		<path d="M51 140C140 141.256 192.5 140.811 277 146" stroke="#00FF19"/>
		<path d="M51 140C157.284 127.237 245.952 72.0153 277 46" stroke="#00FF19"/>
		<path d="M51 139.5C150.662 136.435 203.108 132.874 277 116" stroke="black" stroke-width="2"/>
		<line x1="277.5" y1="136" x2="277.5" y2="143" stroke="black"/>
		<path d="M286.496 144V138.192C286.496 138.056 286.496 137.912 286.496 137.76C286.504 137.6 286.512 137.436 286.52 137.268C286.248 137.532 285.932 137.764 285.572 137.964C285.212 138.156 284.844 138.296 284.468 138.384L284.216 137.508C284.36 137.492 284.54 137.44 284.756 137.352C284.98 137.256 285.212 137.14 285.452 137.004C285.7 136.86 285.928 136.708 286.136 136.548C286.344 136.388 286.504 136.232 286.616 136.08H287.456V144H286.496ZM292.408 144.12C291.512 144.12 290.796 143.772 290.26 143.076C289.724 142.38 289.456 141.368 289.456 140.04C289.456 138.712 289.724 137.7 290.26 137.004C290.796 136.308 291.512 135.96 292.408 135.96C293.312 135.96 294.028 136.308 294.556 137.004C295.092 137.7 295.36 138.712 295.36 140.04C295.36 141.368 295.092 142.38 294.556 143.076C294.028 143.772 293.312 144.12 292.408 144.12ZM292.408 143.256C292.832 143.256 293.188 143.136 293.476 142.896C293.772 142.648 293.992 142.284 294.136 141.804C294.288 141.324 294.364 140.736 294.364 140.04C294.364 139.344 294.288 138.756 294.136 138.276C293.992 137.796 293.772 137.436 293.476 137.196C293.188 136.948 292.832 136.824 292.408 136.824C291.984 136.824 291.624 136.948 291.328 137.196C291.04 137.436 290.82 137.796 290.668 138.276C290.524 138.756 290.452 139.344 290.452 140.04C290.452 140.736 290.524 141.324 290.668 141.804C290.82 142.284 291.04 142.648 291.328 142.896C291.624 143.136 291.984 143.256 292.408 143.256ZM305.518 136.08V141.288C305.518 142.176 305.278 142.872 304.798 143.376C304.326 143.872 303.67 144.12 302.83 144.12C302.238 144.12 301.75 144.008 301.366 143.784C300.982 143.56 300.714 143.244 300.562 142.836C300.418 142.42 300.398 141.936 300.502 141.384L301.39 141.204C301.302 141.884 301.362 142.392 301.57 142.728C301.786 143.056 302.194 143.22 302.794 143.22C303.474 143.22 303.938 143.036 304.186 142.668C304.434 142.292 304.558 141.752 304.558 141.048V136.08H305.518ZM311.143 140.124C311.143 139.676 311.023 139.332 310.783 139.092C310.543 138.844 310.203 138.72 309.763 138.72C309.347 138.72 308.995 138.812 308.707 138.996C308.419 139.172 308.207 139.46 308.071 139.86L307.291 139.38C307.451 138.932 307.747 138.572 308.179 138.3C308.611 138.02 309.147 137.88 309.787 137.88C310.219 137.88 310.611 137.956 310.963 138.108C311.315 138.252 311.591 138.476 311.791 138.78C311.999 139.076 312.103 139.46 312.103 139.932V142.836C312.103 143.124 312.255 143.268 312.559 143.268C312.711 143.268 312.859 143.248 313.003 143.208L312.955 143.964C312.795 144.044 312.587 144.084 312.331 144.084C312.099 144.084 311.891 144.04 311.707 143.952C311.523 143.864 311.379 143.732 311.275 143.556C311.171 143.372 311.119 143.144 311.119 142.872V142.752L311.359 142.788C311.263 143.1 311.099 143.356 310.867 143.556C310.635 143.748 310.375 143.892 310.087 143.988C309.799 144.076 309.515 144.12 309.235 144.12C308.883 144.12 308.555 144.06 308.251 143.94C307.947 143.82 307.703 143.64 307.519 143.4C307.343 143.152 307.255 142.848 307.255 142.488C307.255 142.04 307.403 141.672 307.699 141.384C308.003 141.088 308.423 140.888 308.959 140.784L311.335 140.316V141.108L309.403 141.504C309.011 141.584 308.719 141.696 308.527 141.84C308.335 141.984 308.239 142.184 308.239 142.44C308.239 142.688 308.335 142.892 308.527 143.052C308.727 143.204 309.007 143.28 309.367 143.28C309.599 143.28 309.819 143.252 310.027 143.196C310.243 143.132 310.435 143.04 310.603 142.92C310.771 142.792 310.903 142.636 310.999 142.452C311.095 142.26 311.143 142.036 311.143 141.78V140.124ZM314.436 144V135.24H315.396V138.9C315.604 138.54 315.88 138.28 316.224 138.12C316.568 137.96 316.944 137.88 317.352 137.88C317.784 137.88 318.176 137.964 318.528 138.132C318.88 138.292 319.16 138.54 319.368 138.876C319.584 139.212 319.692 139.64 319.692 140.16V144H318.732V140.496C318.732 139.832 318.588 139.372 318.3 139.116C318.02 138.852 317.672 138.72 317.256 138.72C316.968 138.72 316.68 138.788 316.392 138.924C316.104 139.06 315.864 139.284 315.672 139.596C315.488 139.9 315.396 140.308 315.396 140.82V144H314.436ZM321.866 144V138H322.646L322.778 138.984C322.946 138.616 323.19 138.34 323.51 138.156C323.838 137.972 324.234 137.88 324.698 137.88C324.802 137.88 324.914 137.888 325.034 137.904C325.162 137.92 325.27 137.952 325.358 138L325.19 138.876C325.102 138.844 325.006 138.82 324.902 138.804C324.798 138.788 324.65 138.78 324.458 138.78C324.21 138.78 323.958 138.852 323.702 138.996C323.454 139.14 323.246 139.36 323.078 139.656C322.91 139.944 322.826 140.312 322.826 140.76V144H321.866ZM329.085 144.12C328.517 144.12 328.009 143.996 327.561 143.748C327.121 143.5 326.777 143.144 326.529 142.68C326.281 142.208 326.157 141.648 326.157 141C326.157 140.352 326.281 139.796 326.529 139.332C326.777 138.86 327.117 138.5 327.549 138.252C327.981 138.004 328.473 137.88 329.025 137.88C329.585 137.88 330.061 138 330.453 138.24C330.853 138.48 331.157 138.808 331.365 139.224C331.573 139.632 331.677 140.092 331.677 140.604C331.677 140.74 331.673 140.864 331.665 140.976C331.657 141.088 331.645 141.188 331.629 141.276H326.781V140.424H331.209L330.717 140.52C330.717 139.944 330.557 139.5 330.237 139.188C329.925 138.876 329.513 138.72 329.001 138.72C328.609 138.72 328.269 138.812 327.981 138.996C327.701 139.172 327.481 139.432 327.321 139.776C327.169 140.112 327.093 140.52 327.093 141C327.093 141.472 327.173 141.88 327.333 142.224C327.493 142.568 327.717 142.832 328.005 143.016C328.301 143.192 328.653 143.28 329.061 143.28C329.501 143.28 329.857 143.196 330.129 143.028C330.409 142.86 330.633 142.632 330.801 142.344L331.557 142.788C331.405 143.06 331.209 143.296 330.969 143.496C330.737 143.696 330.461 143.852 330.141 143.964C329.829 144.068 329.477 144.12 329.085 144.12Z" fill="black"/>
		<path d="M284.48 158.08H290.312V158.98C289.648 159.684 289.104 160.408 288.68 161.152C288.264 161.888 287.96 162.656 287.768 163.456C287.576 164.256 287.48 165.104 287.48 166H286.496C286.496 165.112 286.604 164.244 286.82 163.396C287.044 162.54 287.38 161.72 287.828 160.936C288.276 160.152 288.832 159.42 289.496 158.74L289.652 158.98H284.48V158.08ZM291.207 158.08H297.039V158.98C296.375 159.684 295.831 160.408 295.407 161.152C294.991 161.888 294.687 162.656 294.495 163.456C294.303 164.256 294.207 165.104 294.207 166H293.223C293.223 165.112 293.331 164.244 293.547 163.396C293.771 162.54 294.107 161.72 294.555 160.936C295.003 160.152 295.559 159.42 296.223 158.74L296.379 158.98H291.207V158.08ZM301.924 161.62V160.84H306.784L306.544 161.62H301.924ZM301.924 163.432V162.652H306.304L306.064 163.432H301.924ZM306.124 157.96C306.612 157.96 307.04 158.032 307.408 158.176C307.776 158.312 308.088 158.52 308.344 158.8C308.608 159.072 308.812 159.408 308.956 159.808L308.092 160.216C307.956 159.76 307.728 159.412 307.408 159.172C307.096 158.924 306.696 158.8 306.208 158.8C305.728 158.8 305.308 158.932 304.948 159.196C304.588 159.452 304.304 159.824 304.096 160.312C303.896 160.792 303.796 161.368 303.796 162.04C303.796 163.032 304 163.82 304.408 164.404C304.816 164.988 305.416 165.28 306.208 165.28C306.712 165.28 307.136 165.144 307.48 164.872C307.832 164.592 308.08 164.184 308.224 163.648L309.1 163.972C308.956 164.42 308.744 164.808 308.464 165.136C308.192 165.456 307.86 165.7 307.468 165.868C307.084 166.036 306.652 166.12 306.172 166.12C305.46 166.12 304.856 165.956 304.36 165.628C303.864 165.292 303.484 164.82 303.22 164.212C302.964 163.604 302.836 162.88 302.836 162.04C302.836 161.2 302.976 160.476 303.256 159.868C303.536 159.26 303.92 158.792 304.408 158.464C304.904 158.128 305.476 157.96 306.124 157.96Z" fill="black"/>
		<path d="M286.292 120V115.44C286.292 115.232 286.292 115.02 286.292 114.804C286.3 114.58 286.304 114.352 286.304 114.12C286.04 114.36 285.748 114.572 285.428 114.756C285.108 114.932 284.772 115.052 284.42 115.116L284.228 113.412C284.436 113.396 284.656 113.344 284.888 113.256C285.128 113.168 285.364 113.06 285.596 112.932C285.828 112.804 286.036 112.668 286.22 112.524C286.404 112.372 286.544 112.224 286.64 112.08H288.284V120H286.292ZM292.684 111.96C293.412 111.96 294.02 112.116 294.508 112.428C295.004 112.732 295.376 113.184 295.624 113.784C295.872 114.384 295.996 115.128 295.996 116.016C295.996 116.976 295.852 117.76 295.564 118.368C295.284 118.968 294.896 119.412 294.4 119.7C293.904 119.98 293.332 120.12 292.684 120.12C291.996 120.12 291.396 119.984 290.884 119.712C290.38 119.432 290.004 118.992 289.756 118.392L291.604 117.66C291.668 117.94 291.788 118.16 291.964 118.32C292.148 118.48 292.4 118.56 292.72 118.56C292.968 118.56 293.184 118.512 293.368 118.416C293.552 118.312 293.7 118.164 293.812 117.972C293.932 117.78 294.02 117.548 294.076 117.276C294.132 116.996 294.16 116.676 294.16 116.316C294.16 116.284 294.16 116.256 294.16 116.232C294.16 116.2 294.16 116.164 294.16 116.124H294.124C294.036 116.364 293.892 116.56 293.692 116.712C293.492 116.864 293.264 116.98 293.008 117.06C292.752 117.132 292.488 117.168 292.216 117.168C291.72 117.168 291.276 117.068 290.884 116.868C290.5 116.66 290.2 116.372 289.984 116.004C289.768 115.628 289.66 115.192 289.66 114.696C289.66 114.128 289.784 113.644 290.032 113.244C290.288 112.836 290.64 112.52 291.088 112.296C291.544 112.072 292.076 111.96 292.684 111.96ZM292.684 113.544C292.34 113.544 292.064 113.64 291.856 113.832C291.656 114.024 291.556 114.296 291.556 114.648C291.556 114.968 291.66 115.22 291.868 115.404C292.076 115.58 292.348 115.668 292.684 115.668C292.9 115.668 293.092 115.624 293.26 115.536C293.436 115.448 293.572 115.328 293.668 115.176C293.764 115.016 293.812 114.828 293.812 114.612C293.812 114.388 293.764 114.2 293.668 114.048C293.572 113.888 293.436 113.764 293.26 113.676C293.092 113.588 292.9 113.544 292.684 113.544ZM300.943 120V118.26H297.079V116.964C297.151 116.836 297.243 116.68 297.354 116.496C297.475 116.312 297.615 116.1 297.775 115.86L300.355 112.08H302.767V116.844H303.979V118.26H302.767V120H300.943ZM298.735 116.844H300.967V114.444C300.967 114.284 300.971 114.12 300.979 113.952C300.987 113.776 300.995 113.6 301.003 113.424H300.979C300.899 113.592 300.803 113.768 300.691 113.952C300.587 114.128 300.487 114.288 300.391 114.432L298.987 116.484C298.947 116.548 298.907 116.608 298.867 116.664C298.827 116.72 298.783 116.78 298.735 116.844ZM308.054 115.752V114.972H313.802L313.538 115.752H308.054ZM308.054 117.276V116.484H313.322L313.07 117.276H308.054ZM312.71 111.96C313.23 111.96 313.702 112.036 314.126 112.188C314.55 112.332 314.91 112.544 315.206 112.824C315.502 113.096 315.71 113.432 315.83 113.832L314.318 114.516C314.246 114.132 314.066 113.852 313.778 113.676C313.49 113.492 313.154 113.4 312.77 113.4C312.338 113.4 311.978 113.5 311.69 113.7C311.41 113.9 311.198 114.2 311.054 114.6C310.918 114.992 310.85 115.472 310.85 116.04C310.85 116.888 310.998 117.54 311.294 117.996C311.598 118.452 312.094 118.68 312.782 118.68C313.182 118.68 313.514 118.58 313.778 118.38C314.042 118.172 314.218 117.86 314.306 117.444L315.878 117.912C315.758 118.4 315.55 118.808 315.254 119.136C314.966 119.464 314.602 119.712 314.162 119.88C313.73 120.04 313.25 120.12 312.722 120.12C311.938 120.12 311.266 119.96 310.706 119.64C310.146 119.312 309.714 118.844 309.41 118.236C309.114 117.628 308.966 116.896 308.966 116.04C308.966 115.184 309.118 114.452 309.422 113.844C309.734 113.236 310.17 112.772 310.73 112.452C311.29 112.124 311.95 111.96 312.71 111.96Z" fill="black"/>
		<path d="M288.392 50V47.924H284.528V47.216L288.14 42.08H289.352V47.096H290.756V47.924H289.352V50H288.392ZM285.548 47.096H288.392V44.132C288.392 43.924 288.396 43.712 288.404 43.496C288.42 43.28 288.432 43.068 288.44 42.86H288.416C288.32 43.06 288.196 43.284 288.044 43.532C287.892 43.78 287.752 43.996 287.624 44.18L285.548 47.096ZM291.218 42.08H297.05V42.98C296.386 43.684 295.842 44.408 295.418 45.152C295.002 45.888 294.698 46.656 294.506 47.456C294.314 48.256 294.218 49.104 294.218 50H293.234C293.234 49.112 293.342 48.244 293.558 47.396C293.782 46.54 294.118 45.72 294.566 44.936C295.014 44.152 295.57 43.42 296.234 42.74L296.39 42.98H291.218V42.08ZM300.909 50.12C300.205 50.12 299.637 49.96 299.205 49.64C298.781 49.32 298.453 48.876 298.221 48.308L299.157 47.816C299.285 48.232 299.481 48.572 299.745 48.836C300.017 49.092 300.413 49.22 300.933 49.22C301.301 49.22 301.613 49.152 301.869 49.016C302.133 48.88 302.337 48.688 302.481 48.44C302.625 48.184 302.697 47.88 302.697 47.528C302.697 47.152 302.629 46.84 302.493 46.592C302.365 46.336 302.177 46.144 301.929 46.016C301.681 45.888 301.377 45.824 301.017 45.824C300.761 45.824 300.521 45.852 300.297 45.908C300.081 45.956 299.885 46.036 299.709 46.148C299.533 46.26 299.381 46.408 299.253 46.592L298.413 46.436L298.881 42.08H303.333V42.98H299.697L299.385 45.476L299.361 45.584H299.385C299.577 45.384 299.821 45.224 300.117 45.104C300.421 44.984 300.781 44.924 301.197 44.924C301.701 44.924 302.137 45.032 302.505 45.248C302.881 45.456 303.173 45.752 303.381 46.136C303.589 46.52 303.693 46.968 303.693 47.48C303.693 47.888 303.625 48.256 303.489 48.584C303.353 48.912 303.161 49.192 302.913 49.424C302.665 49.648 302.369 49.82 302.025 49.94C301.689 50.06 301.317 50.12 300.909 50.12ZM309.283 45.62V44.84H314.143L313.903 45.62H309.283ZM309.283 47.432V46.652H313.663L313.423 47.432H309.283ZM313.483 41.96C313.971 41.96 314.399 42.032 314.767 42.176C315.135 42.312 315.447 42.52 315.703 42.8C315.967 43.072 316.171 43.408 316.315 43.808L315.451 44.216C315.315 43.76 315.087 43.412 314.767 43.172C314.455 42.924 314.055 42.8 313.567 42.8C313.087 42.8 312.667 42.932 312.307 43.196C311.947 43.452 311.663 43.824 311.455 44.312C311.255 44.792 311.155 45.368 311.155 46.04C311.155 47.032 311.359 47.82 311.767 48.404C312.175 48.988 312.775 49.28 313.567 49.28C314.071 49.28 314.495 49.144 314.839 48.872C315.191 48.592 315.439 48.184 315.583 47.648L316.459 47.972C316.315 48.42 316.103 48.808 315.823 49.136C315.551 49.456 315.219 49.7 314.827 49.868C314.443 50.036 314.011 50.12 313.531 50.12C312.819 50.12 312.215 49.956 311.719 49.628C311.223 49.292 310.843 48.82 310.579 48.212C310.323 47.604 310.195 46.88 310.195 46.04C310.195 45.2 310.335 44.476 310.615 43.868C310.895 43.26 311.279 42.792 311.767 42.464C312.263 42.128 312.835 41.96 313.483 41.96Z" fill="black"/>
		<path d="M3.328 145V137.256C3.328 137.075 3.328 136.883 3.328 136.68C3.33867 136.467 3.34933 136.248 3.36 136.024C2.99733 136.376 2.576 136.685 2.096 136.952C1.616 137.208 1.12533 137.395 0.624 137.512L0.288 136.344C0.48 136.323 0.72 136.253 1.008 136.136C1.30667 136.008 1.616 135.853 1.936 135.672C2.26667 135.48 2.57067 135.277 2.848 135.064C3.12533 134.851 3.33867 134.643 3.488 134.44H4.608V145H3.328ZM11.2104 145.16C10.0157 145.16 9.06104 144.696 8.34637 143.768C7.63171 142.84 7.27438 141.491 7.27438 139.72C7.27438 137.949 7.63171 136.6 8.34637 135.672C9.06104 134.744 10.0157 134.28 11.2104 134.28C12.4157 134.28 13.3704 134.744 14.0744 135.672C14.789 136.6 15.1464 137.949 15.1464 139.72C15.1464 141.491 14.789 142.84 14.0744 143.768C13.3704 144.696 12.4157 145.16 11.2104 145.16ZM11.2104 144.008C11.7757 144.008 12.2504 143.848 12.6344 143.528C13.029 143.197 13.3224 142.712 13.5144 142.072C13.717 141.432 13.8184 140.648 13.8184 139.72C13.8184 138.792 13.717 138.008 13.5144 137.368C13.3224 136.728 13.029 136.248 12.6344 135.928C12.2504 135.597 11.7757 135.432 11.2104 135.432C10.645 135.432 10.165 135.597 9.77038 135.928C9.38638 136.248 9.09304 136.728 8.89038 137.368C8.69838 138.008 8.60238 138.792 8.60238 139.72C8.60238 140.648 8.69838 141.432 8.89038 142.072C9.09304 142.712 9.38638 143.197 9.77038 143.528C10.165 143.848 10.645 144.008 11.2104 144.008ZM21.1635 145.16C19.9688 145.16 19.0142 144.696 18.2995 143.768C17.5848 142.84 17.2275 141.491 17.2275 139.72C17.2275 137.949 17.5848 136.6 18.2995 135.672C19.0142 134.744 19.9688 134.28 21.1635 134.28C22.3688 134.28 23.3235 134.744 24.0275 135.672C24.7422 136.6 25.0995 137.949 25.0995 139.72C25.0995 141.491 24.7422 142.84 24.0275 143.768C23.3235 144.696 22.3688 145.16 21.1635 145.16ZM21.1635 144.008C21.7288 144.008 22.2035 143.848 22.5875 143.528C22.9822 143.197 23.2755 142.712 23.4675 142.072C23.6702 141.432 23.7715 140.648 23.7715 139.72C23.7715 138.792 23.6702 138.008 23.4675 137.368C23.2755 136.728 22.9822 136.248 22.5875 135.928C22.2035 135.597 21.7288 135.432 21.1635 135.432C20.5982 135.432 20.1182 135.597 19.7235 135.928C19.3395 136.248 19.0462 136.728 18.8435 137.368C18.6515 138.008 18.5555 138.792 18.5555 139.72C18.5555 140.648 18.6515 141.432 18.8435 142.072C19.0462 142.712 19.3395 143.197 19.7235 143.528C20.1182 143.848 20.5982 144.008 21.1635 144.008ZM32.5858 139.16V138.12H39.0658L38.7458 139.16H32.5858ZM32.5858 141.576V140.536H38.4258L38.1058 141.576H32.5858ZM38.1858 134.28C38.8364 134.28 39.4071 134.376 39.8978 134.568C40.3884 134.749 40.8044 135.027 41.1458 135.4C41.4978 135.763 41.7698 136.211 41.9618 136.744L40.8098 137.288C40.6284 136.68 40.3244 136.216 39.8978 135.896C39.4818 135.565 38.9484 135.4 38.2978 135.4C37.6578 135.4 37.0978 135.576 36.6178 135.928C36.1378 136.269 35.7591 136.765 35.4818 137.416C35.2151 138.056 35.0818 138.824 35.0818 139.72C35.0818 141.043 35.3538 142.093 35.8978 142.872C36.4418 143.651 37.2418 144.04 38.2978 144.04C38.9698 144.04 39.5351 143.859 39.9938 143.496C40.4631 143.123 40.7938 142.579 40.9858 141.864L42.1538 142.296C41.9618 142.893 41.6791 143.411 41.3058 143.848C40.9431 144.275 40.5004 144.6 39.9778 144.824C39.4658 145.048 38.8898 145.16 38.2498 145.16C37.3004 145.16 36.4951 144.941 35.8338 144.504C35.1724 144.056 34.6658 143.427 34.3138 142.616C33.9724 141.805 33.8018 140.84 33.8018 139.72C33.8018 138.6 33.9884 137.635 34.3618 136.824C34.7351 136.013 35.2471 135.389 35.8978 134.952C36.5591 134.504 37.3218 134.28 38.1858 134.28Z" fill="black"/>
	</symbol>

	<symbol width="333" height="174" viewBox="0 0 333 174" fill="none" id="chart_5">
		<line x1="50.75" y1="150" x2="50.75" stroke="black" stroke-opacity="0.7" stroke-width="0.5"/>
		<line x1="51" y1="139.75" x2="281" y2="139.75" stroke="black" stroke-opacity="0.7" stroke-width="0.5"/>
		<path d="M277 150.424V40.5L248 62.5L216.778 82.1749L177 103L134.5 120L93 132.5L51 140.389L132 141L203.5 144L240.5 146L277 150.424Z" fill="#00FF19" fill-opacity="0.2"/>
		<path d="M51 140C140 142.093 192.5 141.352 277 150" stroke="#00FF19"/>
		<path d="M51 140C157.284 126.422 245.952 67.6758 277 40" stroke="#00FF19"/>
		<path d="M51 139.5C150.662 136.174 203.108 132.31 277 114" stroke="black" stroke-width="2"/>
		<line x1="277.5" y1="136" x2="277.5" y2="143" stroke="black"/>
		<path d="M286.496 144V138.192C286.496 138.056 286.496 137.912 286.496 137.76C286.504 137.6 286.512 137.436 286.52 137.268C286.248 137.532 285.932 137.764 285.572 137.964C285.212 138.156 284.844 138.296 284.468 138.384L284.216 137.508C284.36 137.492 284.54 137.44 284.756 137.352C284.98 137.256 285.212 137.14 285.452 137.004C285.7 136.86 285.928 136.708 286.136 136.548C286.344 136.388 286.504 136.232 286.616 136.08H287.456V144H286.496ZM292.408 144.12C291.512 144.12 290.796 143.772 290.26 143.076C289.724 142.38 289.456 141.368 289.456 140.04C289.456 138.712 289.724 137.7 290.26 137.004C290.796 136.308 291.512 135.96 292.408 135.96C293.312 135.96 294.028 136.308 294.556 137.004C295.092 137.7 295.36 138.712 295.36 140.04C295.36 141.368 295.092 142.38 294.556 143.076C294.028 143.772 293.312 144.12 292.408 144.12ZM292.408 143.256C292.832 143.256 293.188 143.136 293.476 142.896C293.772 142.648 293.992 142.284 294.136 141.804C294.288 141.324 294.364 140.736 294.364 140.04C294.364 139.344 294.288 138.756 294.136 138.276C293.992 137.796 293.772 137.436 293.476 137.196C293.188 136.948 292.832 136.824 292.408 136.824C291.984 136.824 291.624 136.948 291.328 137.196C291.04 137.436 290.82 137.796 290.668 138.276C290.524 138.756 290.452 139.344 290.452 140.04C290.452 140.736 290.524 141.324 290.668 141.804C290.82 142.284 291.04 142.648 291.328 142.896C291.624 143.136 291.984 143.256 292.408 143.256ZM305.518 136.08V141.288C305.518 142.176 305.278 142.872 304.798 143.376C304.326 143.872 303.67 144.12 302.83 144.12C302.238 144.12 301.75 144.008 301.366 143.784C300.982 143.56 300.714 143.244 300.562 142.836C300.418 142.42 300.398 141.936 300.502 141.384L301.39 141.204C301.302 141.884 301.362 142.392 301.57 142.728C301.786 143.056 302.194 143.22 302.794 143.22C303.474 143.22 303.938 143.036 304.186 142.668C304.434 142.292 304.558 141.752 304.558 141.048V136.08H305.518ZM311.143 140.124C311.143 139.676 311.023 139.332 310.783 139.092C310.543 138.844 310.203 138.72 309.763 138.72C309.347 138.72 308.995 138.812 308.707 138.996C308.419 139.172 308.207 139.46 308.071 139.86L307.291 139.38C307.451 138.932 307.747 138.572 308.179 138.3C308.611 138.02 309.147 137.88 309.787 137.88C310.219 137.88 310.611 137.956 310.963 138.108C311.315 138.252 311.591 138.476 311.791 138.78C311.999 139.076 312.103 139.46 312.103 139.932V142.836C312.103 143.124 312.255 143.268 312.559 143.268C312.711 143.268 312.859 143.248 313.003 143.208L312.955 143.964C312.795 144.044 312.587 144.084 312.331 144.084C312.099 144.084 311.891 144.04 311.707 143.952C311.523 143.864 311.379 143.732 311.275 143.556C311.171 143.372 311.119 143.144 311.119 142.872V142.752L311.359 142.788C311.263 143.1 311.099 143.356 310.867 143.556C310.635 143.748 310.375 143.892 310.087 143.988C309.799 144.076 309.515 144.12 309.235 144.12C308.883 144.12 308.555 144.06 308.251 143.94C307.947 143.82 307.703 143.64 307.519 143.4C307.343 143.152 307.255 142.848 307.255 142.488C307.255 142.04 307.403 141.672 307.699 141.384C308.003 141.088 308.423 140.888 308.959 140.784L311.335 140.316V141.108L309.403 141.504C309.011 141.584 308.719 141.696 308.527 141.84C308.335 141.984 308.239 142.184 308.239 142.44C308.239 142.688 308.335 142.892 308.527 143.052C308.727 143.204 309.007 143.28 309.367 143.28C309.599 143.28 309.819 143.252 310.027 143.196C310.243 143.132 310.435 143.04 310.603 142.92C310.771 142.792 310.903 142.636 310.999 142.452C311.095 142.26 311.143 142.036 311.143 141.78V140.124ZM314.436 144V135.24H315.396V138.9C315.604 138.54 315.88 138.28 316.224 138.12C316.568 137.96 316.944 137.88 317.352 137.88C317.784 137.88 318.176 137.964 318.528 138.132C318.88 138.292 319.16 138.54 319.368 138.876C319.584 139.212 319.692 139.64 319.692 140.16V144H318.732V140.496C318.732 139.832 318.588 139.372 318.3 139.116C318.02 138.852 317.672 138.72 317.256 138.72C316.968 138.72 316.68 138.788 316.392 138.924C316.104 139.06 315.864 139.284 315.672 139.596C315.488 139.9 315.396 140.308 315.396 140.82V144H314.436ZM321.866 144V138H322.646L322.778 138.984C322.946 138.616 323.19 138.34 323.51 138.156C323.838 137.972 324.234 137.88 324.698 137.88C324.802 137.88 324.914 137.888 325.034 137.904C325.162 137.92 325.27 137.952 325.358 138L325.19 138.876C325.102 138.844 325.006 138.82 324.902 138.804C324.798 138.788 324.65 138.78 324.458 138.78C324.21 138.78 323.958 138.852 323.702 138.996C323.454 139.14 323.246 139.36 323.078 139.656C322.91 139.944 322.826 140.312 322.826 140.76V144H321.866ZM329.085 144.12C328.517 144.12 328.009 143.996 327.561 143.748C327.121 143.5 326.777 143.144 326.529 142.68C326.281 142.208 326.157 141.648 326.157 141C326.157 140.352 326.281 139.796 326.529 139.332C326.777 138.86 327.117 138.5 327.549 138.252C327.981 138.004 328.473 137.88 329.025 137.88C329.585 137.88 330.061 138 330.453 138.24C330.853 138.48 331.157 138.808 331.365 139.224C331.573 139.632 331.677 140.092 331.677 140.604C331.677 140.74 331.673 140.864 331.665 140.976C331.657 141.088 331.645 141.188 331.629 141.276H326.781V140.424H331.209L330.717 140.52C330.717 139.944 330.557 139.5 330.237 139.188C329.925 138.876 329.513 138.72 329.001 138.72C328.609 138.72 328.269 138.812 327.981 138.996C327.701 139.172 327.481 139.432 327.321 139.776C327.169 140.112 327.093 140.52 327.093 141C327.093 141.472 327.173 141.88 327.333 142.224C327.493 142.568 327.717 142.832 328.005 143.016C328.301 143.192 328.653 143.28 329.061 143.28C329.501 143.28 329.857 143.196 330.129 143.028C330.409 142.86 330.633 142.632 330.801 142.344L331.557 142.788C331.405 143.06 331.209 143.296 330.969 143.496C330.737 143.696 330.461 143.852 330.141 143.964C329.829 144.068 329.477 144.12 329.085 144.12Z" fill="black"/>
		<path d="M287.876 157.96C288.3 157.96 288.668 158.02 288.98 158.14C289.3 158.252 289.576 158.432 289.808 158.68C290.04 158.92 290.236 159.236 290.396 159.628L289.508 160.048C289.388 159.68 289.192 159.392 288.92 159.184C288.656 158.968 288.288 158.86 287.816 158.86C287.472 158.86 287.168 158.948 286.904 159.124C286.64 159.292 286.416 159.528 286.232 159.832C286.048 160.136 285.908 160.492 285.812 160.9C285.724 161.308 285.68 161.748 285.68 162.22C285.68 162.236 285.68 162.26 285.68 162.292C285.68 162.324 285.68 162.372 285.68 162.436H285.728C285.816 162.092 285.976 161.816 286.208 161.608C286.448 161.392 286.716 161.236 287.012 161.14C287.316 161.036 287.612 160.984 287.9 160.984C288.436 160.984 288.904 161.088 289.304 161.296C289.704 161.504 290.012 161.8 290.228 162.184C290.452 162.568 290.564 163.024 290.564 163.552C290.564 164.072 290.452 164.528 290.228 164.92C290.004 165.304 289.688 165.6 289.28 165.808C288.88 166.016 288.4 166.12 287.84 166.12C287.176 166.12 286.616 165.944 286.16 165.592C285.704 165.24 285.36 164.76 285.128 164.152C284.896 163.536 284.78 162.832 284.78 162.04C284.78 161.152 284.916 160.408 285.188 159.808C285.46 159.2 285.828 158.74 286.292 158.428C286.764 158.116 287.292 157.96 287.876 157.96ZM287.828 161.908C287.484 161.908 287.18 161.98 286.916 162.124C286.66 162.26 286.46 162.452 286.316 162.7C286.172 162.94 286.1 163.22 286.1 163.54C286.1 163.844 286.176 164.124 286.328 164.38C286.48 164.628 286.684 164.828 286.94 164.98C287.204 165.124 287.5 165.196 287.828 165.196C288.372 165.196 288.796 165.052 289.1 164.764C289.404 164.468 289.556 164.06 289.556 163.54C289.556 163.204 289.488 162.916 289.352 162.676C289.216 162.428 289.02 162.24 288.764 162.112C288.508 161.976 288.196 161.908 287.828 161.908ZM293.797 166V160.192C293.797 160.056 293.797 159.912 293.797 159.76C293.805 159.6 293.813 159.436 293.821 159.268C293.549 159.532 293.233 159.764 292.873 159.964C292.513 160.156 292.145 160.296 291.769 160.384L291.517 159.508C291.661 159.492 291.841 159.44 292.057 159.352C292.281 159.256 292.513 159.14 292.753 159.004C293.001 158.86 293.229 158.708 293.437 158.548C293.645 158.388 293.805 158.232 293.917 158.08H294.757V166H293.797ZM300.81 161.62V160.84H305.67L305.43 161.62H300.81ZM300.81 163.432V162.652H305.19L304.95 163.432H300.81ZM305.01 157.96C305.498 157.96 305.926 158.032 306.294 158.176C306.662 158.312 306.974 158.52 307.23 158.8C307.494 159.072 307.698 159.408 307.842 159.808L306.978 160.216C306.842 159.76 306.614 159.412 306.294 159.172C305.982 158.924 305.582 158.8 305.094 158.8C304.614 158.8 304.194 158.932 303.834 159.196C303.474 159.452 303.19 159.824 302.982 160.312C302.782 160.792 302.682 161.368 302.682 162.04C302.682 163.032 302.886 163.82 303.294 164.404C303.702 164.988 304.302 165.28 305.094 165.28C305.598 165.28 306.022 165.144 306.366 164.872C306.718 164.592 306.966 164.184 307.11 163.648L307.986 163.972C307.842 164.42 307.63 164.808 307.35 165.136C307.078 165.456 306.746 165.7 306.354 165.868C305.97 166.036 305.538 166.12 305.058 166.12C304.346 166.12 303.742 165.956 303.246 165.628C302.75 165.292 302.37 164.82 302.106 164.212C301.85 163.604 301.722 162.88 301.722 162.04C301.722 161.2 301.862 160.476 302.142 159.868C302.422 159.26 302.806 158.792 303.294 158.464C303.79 158.128 304.362 157.96 305.01 157.96Z" fill="black"/>
		<path d="M284.72 118V116.68C285.4 116.256 285.98 115.86 286.46 115.492C286.94 115.124 287.328 114.776 287.624 114.448C287.928 114.12 288.152 113.808 288.296 113.512C288.44 113.216 288.512 112.928 288.512 112.648C288.512 112.344 288.42 112.092 288.236 111.892C288.06 111.684 287.796 111.58 287.444 111.58C287.068 111.58 286.776 111.72 286.568 112C286.36 112.272 286.248 112.672 286.232 113.2L284.468 112.66C284.484 112.068 284.624 111.572 284.888 111.172C285.16 110.772 285.528 110.472 285.992 110.272C286.456 110.064 286.984 109.96 287.576 109.96C288.096 109.96 288.544 110.036 288.92 110.188C289.304 110.332 289.616 110.528 289.856 110.776C290.096 111.016 290.272 111.288 290.384 111.592C290.504 111.888 290.564 112.192 290.564 112.504C290.564 113.016 290.432 113.496 290.168 113.944C289.904 114.384 289.52 114.812 289.016 115.228C288.52 115.636 287.916 116.048 287.204 116.464V116.476C287.34 116.468 287.5 116.46 287.684 116.452C287.868 116.444 288.06 116.44 288.26 116.44C288.46 116.432 288.64 116.428 288.8 116.428H290.66V118H284.72ZM295.012 118.12C293.932 118.12 293.112 117.776 292.552 117.088C292 116.4 291.724 115.384 291.724 114.04C291.724 112.696 292 111.68 292.552 110.992C293.112 110.304 293.932 109.96 295.012 109.96C296.092 109.96 296.908 110.304 297.46 110.992C298.02 111.68 298.3 112.696 298.3 114.04C298.3 115.384 298.02 116.4 297.46 117.088C296.908 117.776 296.092 118.12 295.012 118.12ZM295.012 116.512C295.308 116.512 295.548 116.432 295.732 116.272C295.916 116.104 296.048 115.84 296.128 115.48C296.216 115.112 296.26 114.632 296.26 114.04C296.26 113.448 296.216 112.972 296.128 112.612C296.048 112.244 295.916 111.98 295.732 111.82C295.548 111.652 295.308 111.568 295.012 111.568C294.724 111.568 294.484 111.652 294.292 111.82C294.108 111.98 293.972 112.244 293.884 112.612C293.804 112.972 293.764 113.448 293.764 114.04C293.764 114.632 293.804 115.112 293.884 115.48C293.972 115.84 294.108 116.104 294.292 116.272C294.484 116.432 294.724 116.512 295.012 116.512ZM299.591 118V116.68C300.271 116.256 300.851 115.86 301.331 115.492C301.811 115.124 302.199 114.776 302.495 114.448C302.799 114.12 303.023 113.808 303.167 113.512C303.311 113.216 303.383 112.928 303.383 112.648C303.383 112.344 303.291 112.092 303.107 111.892C302.931 111.684 302.667 111.58 302.315 111.58C301.939 111.58 301.647 111.72 301.439 112C301.231 112.272 301.119 112.672 301.103 113.2L299.339 112.66C299.355 112.068 299.495 111.572 299.759 111.172C300.031 110.772 300.399 110.472 300.863 110.272C301.327 110.064 301.855 109.96 302.447 109.96C302.967 109.96 303.415 110.036 303.791 110.188C304.175 110.332 304.487 110.528 304.727 110.776C304.967 111.016 305.143 111.288 305.255 111.592C305.375 111.888 305.435 112.192 305.435 112.504C305.435 113.016 305.303 113.496 305.039 113.944C304.775 114.384 304.391 114.812 303.887 115.228C303.391 115.636 302.787 116.048 302.075 116.464V116.476C302.211 116.468 302.371 116.46 302.555 116.452C302.739 116.444 302.931 116.44 303.131 116.44C303.331 116.432 303.511 116.428 303.671 116.428H305.531V118H299.591ZM309.753 113.752V112.972H315.501L315.237 113.752H309.753ZM309.753 115.276V114.484H315.021L314.769 115.276H309.753ZM314.409 109.96C314.929 109.96 315.401 110.036 315.825 110.188C316.249 110.332 316.609 110.544 316.905 110.824C317.201 111.096 317.409 111.432 317.529 111.832L316.017 112.516C315.945 112.132 315.765 111.852 315.477 111.676C315.189 111.492 314.853 111.4 314.469 111.4C314.037 111.4 313.677 111.5 313.389 111.7C313.109 111.9 312.897 112.2 312.753 112.6C312.617 112.992 312.549 113.472 312.549 114.04C312.549 114.888 312.697 115.54 312.993 115.996C313.297 116.452 313.793 116.68 314.481 116.68C314.881 116.68 315.213 116.58 315.477 116.38C315.741 116.172 315.917 115.86 316.005 115.444L317.577 115.912C317.457 116.4 317.249 116.808 316.953 117.136C316.665 117.464 316.301 117.712 315.861 117.88C315.429 118.04 314.949 118.12 314.421 118.12C313.637 118.12 312.965 117.96 312.405 117.64C311.845 117.312 311.413 116.844 311.109 116.236C310.813 115.628 310.665 114.896 310.665 114.04C310.665 113.184 310.817 112.452 311.121 111.844C311.433 111.236 311.869 110.772 312.429 110.452C312.989 110.124 313.649 109.96 314.409 109.96Z" fill="black"/>
		<path d="M287.444 44.12C286.74 44.12 286.172 43.96 285.74 43.64C285.316 43.32 284.988 42.876 284.756 42.308L285.692 41.816C285.82 42.232 286.016 42.572 286.28 42.836C286.552 43.092 286.948 43.22 287.468 43.22C287.836 43.22 288.148 43.152 288.404 43.016C288.668 42.88 288.872 42.688 289.016 42.44C289.16 42.184 289.232 41.88 289.232 41.528C289.232 41.152 289.164 40.84 289.028 40.592C288.9 40.336 288.712 40.144 288.464 40.016C288.216 39.888 287.912 39.824 287.552 39.824C287.296 39.824 287.056 39.852 286.832 39.908C286.616 39.956 286.42 40.036 286.244 40.148C286.068 40.26 285.916 40.408 285.788 40.592L284.948 40.436L285.416 36.08H289.868V36.98H286.232L285.92 39.476L285.896 39.584H285.92C286.112 39.384 286.356 39.224 286.652 39.104C286.956 38.984 287.316 38.924 287.732 38.924C288.236 38.924 288.672 39.032 289.04 39.248C289.416 39.456 289.708 39.752 289.916 40.136C290.124 40.52 290.228 40.968 290.228 41.48C290.228 41.888 290.16 42.256 290.024 42.584C289.888 42.912 289.696 43.192 289.448 43.424C289.2 43.648 288.904 43.82 288.56 43.94C288.224 44.06 287.852 44.12 287.444 44.12ZM295.376 44V41.924H291.512V41.216L295.124 36.08H296.336V41.096H297.74V41.924H296.336V44H295.376ZM292.532 41.096H295.376V38.132C295.376 37.924 295.38 37.712 295.388 37.496C295.404 37.28 295.416 37.068 295.424 36.86H295.4C295.304 37.06 295.18 37.284 295.028 37.532C294.876 37.78 294.736 37.996 294.608 38.18L292.532 41.096ZM302.052 44.12C301.156 44.12 300.44 43.772 299.904 43.076C299.368 42.38 299.1 41.368 299.1 40.04C299.1 38.712 299.368 37.7 299.904 37.004C300.44 36.308 301.156 35.96 302.052 35.96C302.956 35.96 303.672 36.308 304.2 37.004C304.736 37.7 305.004 38.712 305.004 40.04C305.004 41.368 304.736 42.38 304.2 43.076C303.672 43.772 302.956 44.12 302.052 44.12ZM302.052 43.256C302.476 43.256 302.832 43.136 303.12 42.896C303.416 42.648 303.636 42.284 303.78 41.804C303.932 41.324 304.008 40.736 304.008 40.04C304.008 39.344 303.932 38.756 303.78 38.276C303.636 37.796 303.416 37.436 303.12 37.196C302.832 36.948 302.476 36.824 302.052 36.824C301.628 36.824 301.268 36.948 300.972 37.196C300.684 37.436 300.464 37.796 300.312 38.276C300.168 38.756 300.096 39.344 300.096 40.04C300.096 40.736 300.168 41.324 300.312 41.804C300.464 42.284 300.684 42.648 300.972 42.896C301.268 43.136 301.628 43.256 302.052 43.256ZM310.619 39.62V38.84H315.479L315.239 39.62H310.619ZM310.619 41.432V40.652H314.999L314.759 41.432H310.619ZM314.819 35.96C315.307 35.96 315.735 36.032 316.103 36.176C316.471 36.312 316.783 36.52 317.039 36.8C317.303 37.072 317.507 37.408 317.651 37.808L316.787 38.216C316.651 37.76 316.423 37.412 316.103 37.172C315.791 36.924 315.391 36.8 314.903 36.8C314.423 36.8 314.003 36.932 313.643 37.196C313.283 37.452 312.999 37.824 312.791 38.312C312.591 38.792 312.491 39.368 312.491 40.04C312.491 41.032 312.695 41.82 313.103 42.404C313.511 42.988 314.111 43.28 314.903 43.28C315.407 43.28 315.831 43.144 316.175 42.872C316.527 42.592 316.775 42.184 316.919 41.648L317.795 41.972C317.651 42.42 317.439 42.808 317.159 43.136C316.887 43.456 316.555 43.7 316.163 43.868C315.779 44.036 315.347 44.12 314.867 44.12C314.155 44.12 313.551 43.956 313.055 43.628C312.559 43.292 312.179 42.82 311.915 42.212C311.659 41.604 311.531 40.88 311.531 40.04C311.531 39.2 311.671 38.476 311.951 37.868C312.231 37.26 312.615 36.792 313.103 36.464C313.599 36.128 314.171 35.96 314.819 35.96Z" fill="black"/>
		<path d="M3.328 145V137.256C3.328 137.075 3.328 136.883 3.328 136.68C3.33867 136.467 3.34933 136.248 3.36 136.024C2.99733 136.376 2.576 136.685 2.096 136.952C1.616 137.208 1.12533 137.395 0.624 137.512L0.288 136.344C0.48 136.323 0.72 136.253 1.008 136.136C1.30667 136.008 1.616 135.853 1.936 135.672C2.26667 135.48 2.57067 135.277 2.848 135.064C3.12533 134.851 3.33867 134.643 3.488 134.44H4.608V145H3.328ZM11.2104 145.16C10.0157 145.16 9.06104 144.696 8.34637 143.768C7.63171 142.84 7.27438 141.491 7.27438 139.72C7.27438 137.949 7.63171 136.6 8.34637 135.672C9.06104 134.744 10.0157 134.28 11.2104 134.28C12.4157 134.28 13.3704 134.744 14.0744 135.672C14.789 136.6 15.1464 137.949 15.1464 139.72C15.1464 141.491 14.789 142.84 14.0744 143.768C13.3704 144.696 12.4157 145.16 11.2104 145.16ZM11.2104 144.008C11.7757 144.008 12.2504 143.848 12.6344 143.528C13.029 143.197 13.3224 142.712 13.5144 142.072C13.717 141.432 13.8184 140.648 13.8184 139.72C13.8184 138.792 13.717 138.008 13.5144 137.368C13.3224 136.728 13.029 136.248 12.6344 135.928C12.2504 135.597 11.7757 135.432 11.2104 135.432C10.645 135.432 10.165 135.597 9.77038 135.928C9.38638 136.248 9.09304 136.728 8.89038 137.368C8.69838 138.008 8.60238 138.792 8.60238 139.72C8.60238 140.648 8.69838 141.432 8.89038 142.072C9.09304 142.712 9.38638 143.197 9.77038 143.528C10.165 143.848 10.645 144.008 11.2104 144.008ZM21.1635 145.16C19.9688 145.16 19.0142 144.696 18.2995 143.768C17.5848 142.84 17.2275 141.491 17.2275 139.72C17.2275 137.949 17.5848 136.6 18.2995 135.672C19.0142 134.744 19.9688 134.28 21.1635 134.28C22.3688 134.28 23.3235 134.744 24.0275 135.672C24.7422 136.6 25.0995 137.949 25.0995 139.72C25.0995 141.491 24.7422 142.84 24.0275 143.768C23.3235 144.696 22.3688 145.16 21.1635 145.16ZM21.1635 144.008C21.7288 144.008 22.2035 143.848 22.5875 143.528C22.9822 143.197 23.2755 142.712 23.4675 142.072C23.6702 141.432 23.7715 140.648 23.7715 139.72C23.7715 138.792 23.6702 138.008 23.4675 137.368C23.2755 136.728 22.9822 136.248 22.5875 135.928C22.2035 135.597 21.7288 135.432 21.1635 135.432C20.5982 135.432 20.1182 135.597 19.7235 135.928C19.3395 136.248 19.0462 136.728 18.8435 137.368C18.6515 138.008 18.5555 138.792 18.5555 139.72C18.5555 140.648 18.6515 141.432 18.8435 142.072C19.0462 142.712 19.3395 143.197 19.7235 143.528C20.1182 143.848 20.5982 144.008 21.1635 144.008ZM32.5858 139.16V138.12H39.0658L38.7458 139.16H32.5858ZM32.5858 141.576V140.536H38.4258L38.1058 141.576H32.5858ZM38.1858 134.28C38.8364 134.28 39.4071 134.376 39.8978 134.568C40.3884 134.749 40.8044 135.027 41.1458 135.4C41.4978 135.763 41.7698 136.211 41.9618 136.744L40.8098 137.288C40.6284 136.68 40.3244 136.216 39.8978 135.896C39.4818 135.565 38.9484 135.4 38.2978 135.4C37.6578 135.4 37.0978 135.576 36.6178 135.928C36.1378 136.269 35.7591 136.765 35.4818 137.416C35.2151 138.056 35.0818 138.824 35.0818 139.72C35.0818 141.043 35.3538 142.093 35.8978 142.872C36.4418 143.651 37.2418 144.04 38.2978 144.04C38.9698 144.04 39.5351 143.859 39.9938 143.496C40.4631 143.123 40.7938 142.579 40.9858 141.864L42.1538 142.296C41.9618 142.893 41.6791 143.411 41.3058 143.848C40.9431 144.275 40.5004 144.6 39.9778 144.824C39.4658 145.048 38.8898 145.16 38.2498 145.16C37.3004 145.16 36.4951 144.941 35.8338 144.504C35.1724 144.056 34.6658 143.427 34.3138 142.616C33.9724 141.805 33.8018 140.84 33.8018 139.72C33.8018 138.6 33.9884 137.635 34.3618 136.824C34.7351 136.013 35.2471 135.389 35.8978 134.952C36.5591 134.504 37.3218 134.28 38.1858 134.28Z" fill="black"/>
	</symbol>
</svg>