<svg width="51" height="25" viewBox="0 0 51 25" fill="none" xmlns="http://www.w3.org/2000/svg">
<g clip-path="url(#clip0_724_1069)">
<path d="M25.25 14.0625C28.6458 14.0625 31.6458 14.875 34.0833 15.9375C36.3333 16.9375 37.75 19.1875 37.75 21.625V25H12.75V21.6458C12.75 19.1875 14.1667 16.9375 16.4167 15.9583C18.8542 14.875 21.8542 14.0625 25.25 14.0625ZM8.58333 14.5833C10.875 14.5833 12.75 12.7083 12.75 10.4167C12.75 8.125 10.875 6.25 8.58333 6.25C6.29167 6.25 4.41667 8.125 4.41667 10.4167C4.41667 12.7083 6.29167 14.5833 8.58333 14.5833ZM10.9375 16.875C10.1667 16.75 9.39583 16.6667 8.58333 16.6667C6.52083 16.6667 4.5625 17.1042 2.79167 17.875C1.25 18.5417 0.25 20.0417 0.25 21.7292V25H9.625V21.6458C9.625 19.9167 10.1042 18.2917 10.9375 16.875ZM41.9167 14.5833C44.2083 14.5833 46.0833 12.7083 46.0833 10.4167C46.0833 8.125 44.2083 6.25 41.9167 6.25C39.625 6.25 37.75 8.125 37.75 10.4167C37.75 12.7083 39.625 14.5833 41.9167 14.5833ZM50.25 21.7292C50.25 20.0417 49.25 18.5417 47.7083 17.875C45.9375 17.1042 43.9792 16.6667 41.9167 16.6667C41.1042 16.6667 40.3333 16.75 39.5625 16.875C40.3958 18.2917 40.875 19.9167 40.875 21.6458V25H50.25V21.7292ZM25.25 0C28.7083 0 31.5 2.79167 31.5 6.25C31.5 9.70833 28.7083 12.5 25.25 12.5C21.7917 12.5 19 9.70833 19 6.25C19 2.79167 21.7917 0 25.25 0Z" fill="black"/>
</g>
<defs>
<clipPath id="clip0_724_1069">
<rect width="50" height="25" fill="white" transform="translate(0.25)"/>
</clipPath>
</defs>
</svg>
