<svg width="27" height="25" viewBox="0 0 27 25" fill="none" xmlns="http://www.w3.org/2000/svg">
<g clip-path="url(#clip0_724_1072)">
<path d="M18.125 2.5C18.125 1.1125 19.2375 0 20.625 0C22.0125 0 23.125 1.1125 23.125 2.5C23.125 3.8875 22.0125 5 20.625 5C19.2375 5 18.125 3.8875 18.125 2.5ZM23.125 25V17.5H26.25L23.075 7.9625C22.725 6.9375 21.775 6.25 20.7 6.25H20.55C19.475 6.25 18.5125 6.9375 18.175 7.9625L17.1 11.1875C18.45 11.9375 19.375 13.35 19.375 15V25H23.125ZM13.75 11.875C14.7875 11.875 15.625 11.0375 15.625 10C15.625 8.9625 14.7875 8.125 13.75 8.125C12.7125 8.125 11.875 8.9625 11.875 10C11.875 11.0375 12.7125 11.875 13.75 11.875ZM5 5C6.3875 5 7.5 3.8875 7.5 2.5C7.5 1.1125 6.3875 0 5 0C3.6125 0 2.5 1.1125 2.5 2.5C2.5 3.8875 3.6125 5 5 5ZM7.5 25V16.25H9.375V8.75C9.375 7.375 8.25 6.25 6.875 6.25H3.125C1.75 6.25 0.625 7.375 0.625 8.75V16.25H2.5V25H7.5ZM15.625 25V20H16.875V15C16.875 13.975 16.025 13.125 15 13.125H12.5C11.475 13.125 10.625 13.975 10.625 15V20H11.875V25H15.625Z" fill="black"/>
</g>
<defs>
<clipPath id="clip0_724_1072">
<rect width="26.25" height="25" fill="white" transform="translate(0.625)"/>
</clipPath>
</defs>
</svg>
