<svg width="35" height="25" viewBox="0 0 35 25" fill="none" xmlns="http://www.w3.org/2000/svg">
<g clip-path="url(#clip0_724_1066)">
<path fill-rule="evenodd" clip-rule="evenodd" d="M25.0469 14.2656C27.1875 15.7188 28.6875 17.6875 28.6875 20.3125V25H34.9375V20.3125C34.9375 16.9062 29.3594 14.8906 25.0469 14.2656Z" fill="black"/>
<path d="M13.0625 12.5C16.5143 12.5 19.3125 9.70178 19.3125 6.25C19.3125 2.79822 16.5143 0 13.0625 0C9.61072 0 6.8125 2.79822 6.8125 6.25C6.8125 9.70178 9.61072 12.5 13.0625 12.5Z" fill="black"/>
<path fill-rule="evenodd" clip-rule="evenodd" d="M22.4375 12.5C25.8906 12.5 28.6875 9.70312 28.6875 6.25C28.6875 2.79688 25.8906 0 22.4375 0C21.7031 0 21.0156 0.15625 20.3594 0.375C21.6562 1.98437 22.4375 4.03125 22.4375 6.25C22.4375 8.46875 21.6562 10.5156 20.3594 12.125C21.0156 12.3438 21.7031 12.5 22.4375 12.5Z" fill="black"/>
<path fill-rule="evenodd" clip-rule="evenodd" d="M13.0625 14.0625C8.89062 14.0625 0.5625 16.1562 0.5625 20.3125V25H25.5625V20.3125C25.5625 16.1562 17.2344 14.0625 13.0625 14.0625Z" fill="black"/>
</g>
<defs>
<clipPath id="clip0_724_1066">
<rect width="34.375" height="25" fill="white" transform="translate(0.5625)"/>
</clipPath>
</defs>
</svg>
